<svg width="695" height="163" viewBox="0 0 695 163" fill="none" xmlns="http://www.w3.org/2000/svg">
<g filter="url(#filter0_d_2_3)">
<mask id="path-1-outside-1_2_3" maskUnits="userSpaceOnUse" x="76" y="50" width="299" height="72" fill="black">
<rect fill="white" x="76" y="50" width="299" height="72"/>
<path d="M84.0491 120C82.2571 120 80.7211 119.456 79.4411 118.368C78.2251 117.216 77.6171 115.808 77.6171 114.144V58.656C77.6171 56.992 78.2251 55.616 79.4411 54.528C80.6571 53.376 82.1931 52.8 84.0491 52.8H105.361C111.057 52.8 116.081 53.888 120.433 56.064C124.849 58.24 128.241 61.312 130.609 65.28C133.041 69.184 134.257 73.664 134.257 78.72V93.888C134.257 98.944 133.041 103.456 130.609 107.424C128.177 111.392 124.753 114.496 120.337 116.736C115.985 118.912 110.993 120 105.361 120H84.0491ZM104.401 108.96C109.969 108.96 114.193 107.712 117.073 105.216C119.953 102.656 121.393 98.912 121.393 93.984V78.528C121.393 73.728 119.953 70.08 117.073 67.584C114.193 65.088 109.969 63.84 104.401 63.84H90.4811V108.96H104.401ZM143.898 58.656C143.898 56.992 144.506 55.616 145.722 54.528C146.938 53.376 148.474 52.8 150.33 52.8H175.962C182.874 52.8 188.218 54.624 191.994 58.272C195.834 61.92 197.754 67.04 197.754 73.632C197.754 77.408 196.986 80.608 195.45 83.232C193.914 85.792 191.578 87.84 188.442 89.376V89.664C194.074 92.16 196.89 96.896 196.89 103.872V111.36C196.89 114.432 195.802 116.8 193.626 118.464C191.45 120.064 188.25 120.864 184.026 120.864V104.448C184.026 101.056 183.354 98.56 182.01 96.96C180.666 95.36 178.618 94.56 175.866 94.56H156.57V111.36C156.57 114.496 155.482 116.864 153.306 118.464C151.194 120.064 148.058 120.864 143.898 120.864V58.656ZM175.29 83.616C178.362 83.616 180.73 82.752 182.394 81.024C184.058 79.232 184.89 76.736 184.89 73.536C184.89 67.008 181.69 63.744 175.29 63.744H156.57V83.616H175.29ZM210.037 61.536C210.037 58.528 211.157 56.192 213.397 54.528C215.637 52.8 218.805 51.936 222.901 51.936V111.264C222.901 114.336 221.781 116.704 219.541 118.368C217.301 120.032 214.133 120.864 210.037 120.864V61.536ZM262.455 120.864C256.695 120.864 251.671 120.16 247.383 118.752C243.095 117.344 239.799 115.36 237.495 112.8C235.255 110.176 234.135 107.136 234.135 103.68C234.135 98.432 237.687 95.808 244.791 95.808C245.047 100.672 246.679 104.352 249.687 106.848C252.759 109.344 257.047 110.592 262.551 110.592C267.095 110.592 270.615 109.824 273.111 108.288C275.607 106.688 276.855 104.48 276.855 101.664C276.855 99.808 276.375 98.304 275.415 97.152C274.455 95.936 272.823 94.88 270.519 93.984C268.215 93.024 264.855 92.064 260.439 91.104C254.167 89.632 249.207 88 245.559 86.208C241.975 84.416 239.383 82.272 237.783 79.776C236.183 77.216 235.383 74.048 235.383 70.272C235.383 66.624 236.439 63.424 238.551 60.672C240.727 57.92 243.767 55.776 247.671 54.24C251.639 52.704 256.183 51.936 261.303 51.936C266.231 51.936 270.615 52.608 274.455 53.952C278.359 55.232 281.399 57.056 283.575 59.424C285.815 61.792 286.935 64.512 286.935 67.584C286.935 72.32 283.511 74.784 276.663 74.976C276.279 70.56 274.871 67.328 272.439 65.28C270.007 63.232 266.295 62.208 261.303 62.208C257.015 62.208 253.719 62.912 251.415 64.32C249.111 65.728 247.959 67.712 247.959 70.272C247.959 72.064 248.407 73.568 249.303 74.784C250.199 75.936 251.703 76.96 253.815 77.856C255.927 78.688 258.935 79.552 262.839 80.448C269.431 81.92 274.647 83.584 278.487 85.44C282.327 87.232 285.111 89.44 286.839 92.064C288.567 94.624 289.431 97.792 289.431 101.568C289.431 105.472 288.311 108.896 286.071 111.84C283.895 114.72 280.759 116.96 276.663 118.56C272.631 120.096 267.895 120.864 262.455 120.864ZM314.527 63.936H291.391C291.391 56.512 294.751 52.8 301.471 52.8H350.527C350.527 60.224 347.135 63.936 340.351 63.936H327.391V111.36C327.391 114.432 326.303 116.8 324.127 118.464C321.951 120.064 318.751 120.864 314.527 120.864V63.936ZM360.693 61.536C360.693 58.528 361.813 56.192 364.053 54.528C366.293 52.8 369.461 51.936 373.557 51.936V111.264C373.557 114.336 372.437 116.704 370.197 118.368C367.957 120.032 364.789 120.864 360.693 120.864V61.536Z"/>
</mask>
<path d="M84.0491 120C82.2571 120 80.7211 119.456 79.4411 118.368C78.2251 117.216 77.6171 115.808 77.6171 114.144V58.656C77.6171 56.992 78.2251 55.616 79.4411 54.528C80.6571 53.376 82.1931 52.8 84.0491 52.8H105.361C111.057 52.8 116.081 53.888 120.433 56.064C124.849 58.24 128.241 61.312 130.609 65.28C133.041 69.184 134.257 73.664 134.257 78.72V93.888C134.257 98.944 133.041 103.456 130.609 107.424C128.177 111.392 124.753 114.496 120.337 116.736C115.985 118.912 110.993 120 105.361 120H84.0491ZM104.401 108.96C109.969 108.96 114.193 107.712 117.073 105.216C119.953 102.656 121.393 98.912 121.393 93.984V78.528C121.393 73.728 119.953 70.08 117.073 67.584C114.193 65.088 109.969 63.84 104.401 63.84H90.4811V108.96H104.401ZM143.898 58.656C143.898 56.992 144.506 55.616 145.722 54.528C146.938 53.376 148.474 52.8 150.33 52.8H175.962C182.874 52.8 188.218 54.624 191.994 58.272C195.834 61.92 197.754 67.04 197.754 73.632C197.754 77.408 196.986 80.608 195.45 83.232C193.914 85.792 191.578 87.84 188.442 89.376V89.664C194.074 92.16 196.89 96.896 196.89 103.872V111.36C196.89 114.432 195.802 116.8 193.626 118.464C191.45 120.064 188.25 120.864 184.026 120.864V104.448C184.026 101.056 183.354 98.56 182.01 96.96C180.666 95.36 178.618 94.56 175.866 94.56H156.57V111.36C156.57 114.496 155.482 116.864 153.306 118.464C151.194 120.064 148.058 120.864 143.898 120.864V58.656ZM175.29 83.616C178.362 83.616 180.73 82.752 182.394 81.024C184.058 79.232 184.89 76.736 184.89 73.536C184.89 67.008 181.69 63.744 175.29 63.744H156.57V83.616H175.29ZM210.037 61.536C210.037 58.528 211.157 56.192 213.397 54.528C215.637 52.8 218.805 51.936 222.901 51.936V111.264C222.901 114.336 221.781 116.704 219.541 118.368C217.301 120.032 214.133 120.864 210.037 120.864V61.536ZM262.455 120.864C256.695 120.864 251.671 120.16 247.383 118.752C243.095 117.344 239.799 115.36 237.495 112.8C235.255 110.176 234.135 107.136 234.135 103.68C234.135 98.432 237.687 95.808 244.791 95.808C245.047 100.672 246.679 104.352 249.687 106.848C252.759 109.344 257.047 110.592 262.551 110.592C267.095 110.592 270.615 109.824 273.111 108.288C275.607 106.688 276.855 104.48 276.855 101.664C276.855 99.808 276.375 98.304 275.415 97.152C274.455 95.936 272.823 94.88 270.519 93.984C268.215 93.024 264.855 92.064 260.439 91.104C254.167 89.632 249.207 88 245.559 86.208C241.975 84.416 239.383 82.272 237.783 79.776C236.183 77.216 235.383 74.048 235.383 70.272C235.383 66.624 236.439 63.424 238.551 60.672C240.727 57.92 243.767 55.776 247.671 54.24C251.639 52.704 256.183 51.936 261.303 51.936C266.231 51.936 270.615 52.608 274.455 53.952C278.359 55.232 281.399 57.056 283.575 59.424C285.815 61.792 286.935 64.512 286.935 67.584C286.935 72.32 283.511 74.784 276.663 74.976C276.279 70.56 274.871 67.328 272.439 65.28C270.007 63.232 266.295 62.208 261.303 62.208C257.015 62.208 253.719 62.912 251.415 64.32C249.111 65.728 247.959 67.712 247.959 70.272C247.959 72.064 248.407 73.568 249.303 74.784C250.199 75.936 251.703 76.96 253.815 77.856C255.927 78.688 258.935 79.552 262.839 80.448C269.431 81.92 274.647 83.584 278.487 85.44C282.327 87.232 285.111 89.44 286.839 92.064C288.567 94.624 289.431 97.792 289.431 101.568C289.431 105.472 288.311 108.896 286.071 111.84C283.895 114.72 280.759 116.96 276.663 118.56C272.631 120.096 267.895 120.864 262.455 120.864ZM314.527 63.936H291.391C291.391 56.512 294.751 52.8 301.471 52.8H350.527C350.527 60.224 347.135 63.936 340.351 63.936H327.391V111.36C327.391 114.432 326.303 116.8 324.127 118.464C321.951 120.064 318.751 120.864 314.527 120.864V63.936ZM360.693 61.536C360.693 58.528 361.813 56.192 364.053 54.528C366.293 52.8 369.461 51.936 373.557 51.936V111.264C373.557 114.336 372.437 116.704 370.197 118.368C367.957 120.032 364.789 120.864 360.693 120.864V61.536Z" fill="url(#paint0_linear_2_3)"/>
<path d="M79.4411 118.368L78.7534 119.094C78.7664 119.106 78.7798 119.118 78.7935 119.13L79.4411 118.368ZM79.4411 54.528L80.1079 55.2732C80.115 55.2669 80.122 55.2605 80.1289 55.2539L79.4411 54.528ZM120.433 56.064L119.986 56.9584L119.991 56.961L120.433 56.064ZM130.609 65.28L129.75 65.7925C129.754 65.7979 129.757 65.8033 129.76 65.8087L130.609 65.28ZM130.609 107.424L129.757 106.901L129.757 106.901L130.609 107.424ZM120.337 116.736L120.784 117.63L120.79 117.628L120.337 116.736ZM117.073 105.216L117.728 105.972L117.737 105.963L117.073 105.216ZM117.073 67.584L116.418 68.3397L116.418 68.3397L117.073 67.584ZM90.4811 63.84V62.84C89.9288 62.84 89.4811 63.2877 89.4811 63.84H90.4811ZM90.4811 108.96H89.4811C89.4811 109.512 89.9288 109.96 90.4811 109.96V108.96ZM84.0491 119C82.4773 119 81.1753 118.53 80.0888 117.606L78.7935 119.13C80.2669 120.382 82.037 121 84.0491 121V119ZM80.1289 117.642C79.1107 116.677 78.6171 115.531 78.6171 114.144H76.6171C76.6171 116.085 77.3395 117.755 78.7534 119.094L80.1289 117.642ZM78.6171 114.144V58.656H76.6171V114.144H78.6171ZM78.6171 58.656C78.6171 57.2701 79.1087 56.1673 80.1079 55.2732L78.7743 53.7828C77.3416 55.0647 76.6171 56.7139 76.6171 58.656H78.6171ZM80.1289 55.2539C81.1384 54.2976 82.4189 53.8 84.0491 53.8V51.8C81.9673 51.8 80.1759 52.4544 78.7534 53.802L80.1289 55.2539ZM84.0491 53.8H105.361V51.8H84.0491V53.8ZM105.361 53.8C110.928 53.8 115.795 54.8628 119.986 56.9584L120.88 55.1696C116.368 52.9132 111.186 51.8 105.361 51.8V53.8ZM119.991 56.961C124.246 59.0576 127.488 62.0012 129.75 65.7925L131.468 64.7675C128.994 60.6228 125.452 57.4224 120.875 55.167L119.991 56.961ZM129.76 65.8087C132.084 69.5386 133.257 73.8317 133.257 78.72H135.257C135.257 73.4963 133.998 68.8294 131.458 64.7512L129.76 65.8087ZM133.257 78.72V93.888H135.257V78.72H133.257ZM133.257 93.888C133.257 98.7761 132.084 103.104 129.757 106.901L131.462 107.947C133.998 103.808 135.257 99.1119 135.257 93.888H133.257ZM129.757 106.901C127.427 110.701 124.147 113.682 119.885 115.844L120.79 117.628C125.359 115.31 128.927 112.083 131.462 107.947L129.757 106.901ZM119.89 115.842C115.697 117.938 110.862 119 105.361 119V121C111.124 121 116.273 119.886 120.784 117.63L119.89 115.842ZM105.361 119H84.0491V121H105.361V119ZM104.401 109.96C110.101 109.96 114.598 108.684 117.728 105.972L116.418 104.46C113.788 106.74 109.837 107.96 104.401 107.96V109.96ZM117.737 105.963C120.887 103.164 122.393 99.1125 122.393 93.984H120.393C120.393 98.7115 119.019 102.148 116.409 104.469L117.737 105.963ZM122.393 93.984V78.528H120.393V93.984H122.393ZM122.393 78.528C122.393 73.5191 120.882 69.5616 117.728 66.8283L116.418 68.3397C119.024 70.5984 120.393 73.9369 120.393 78.528H122.393ZM117.728 66.8283C114.598 64.1158 110.101 62.84 104.401 62.84V64.84C109.837 64.84 113.788 66.0601 116.418 68.3397L117.728 66.8283ZM104.401 62.84H90.4811V64.84H104.401V62.84ZM89.4811 63.84V108.96H91.4811V63.84H89.4811ZM90.4811 109.96H104.401V107.96H90.4811V109.96ZM145.722 54.528L146.389 55.2732C146.396 55.2669 146.403 55.2605 146.41 55.2539L145.722 54.528ZM191.994 58.272L191.3 58.9912L191.306 58.997L191.994 58.272ZM195.45 83.232L196.308 83.7465L196.313 83.7372L195.45 83.232ZM188.442 89.376L188.003 88.4779C187.66 88.6458 187.442 88.9943 187.442 89.376H188.442ZM188.442 89.664H187.442C187.442 90.0596 187.676 90.418 188.037 90.5782L188.442 89.664ZM193.626 118.464L194.219 119.27C194.224 119.266 194.229 119.262 194.234 119.258L193.626 118.464ZM184.026 120.864H183.026C183.026 121.416 183.474 121.864 184.026 121.864V120.864ZM156.57 94.56V93.56C156.018 93.56 155.57 94.0077 155.57 94.56H156.57ZM153.306 118.464L152.714 117.658C152.71 117.661 152.706 117.664 152.703 117.667L153.306 118.464ZM143.898 120.864H142.898C142.898 121.416 143.346 121.864 143.898 121.864V120.864ZM182.394 81.024L183.115 81.7176C183.119 81.7133 183.123 81.7089 183.127 81.7044L182.394 81.024ZM156.57 63.744V62.744C156.018 62.744 155.57 63.1917 155.57 63.744H156.57ZM156.57 83.616H155.57C155.57 84.1683 156.018 84.616 156.57 84.616V83.616ZM144.898 58.656C144.898 57.2701 145.39 56.1673 146.389 55.2732L145.056 53.7828C143.623 55.0647 142.898 56.7139 142.898 58.656H144.898ZM146.41 55.2539C147.42 54.2976 148.7 53.8 150.33 53.8V51.8C148.249 51.8 146.457 52.4544 145.035 53.802L146.41 55.2539ZM150.33 53.8H175.962V51.8H150.33V53.8ZM175.962 53.8C182.7 53.8 187.763 55.5746 191.3 58.9912L192.689 57.5528C188.674 53.6733 183.049 51.8 175.962 51.8V53.8ZM191.306 58.997C194.9 62.412 196.754 67.2426 196.754 73.632H198.754C198.754 66.8374 196.768 61.4279 192.683 57.547L191.306 58.997ZM196.754 73.632C196.754 77.273 196.014 80.2891 194.587 82.7268L196.313 83.7372C197.958 80.9269 198.754 77.543 198.754 73.632H196.754ZM194.593 82.7175C193.172 85.0856 190.995 87.0121 188.003 88.4779L188.882 90.2741C192.162 88.6679 194.657 86.4984 196.308 83.7465L194.593 82.7175ZM187.442 89.376V89.664H189.442V89.376H187.442ZM188.037 90.5782C190.687 91.7526 192.629 93.4301 193.919 95.5991C195.213 97.7764 195.89 100.517 195.89 103.872H197.89C197.89 100.251 197.159 97.1356 195.638 94.5769C194.112 92.0099 191.83 90.0714 188.848 88.7498L188.037 90.5782ZM195.89 103.872V111.36H197.89V103.872H195.89ZM195.89 111.36C195.89 114.164 194.915 116.22 193.019 117.67L194.234 119.258C196.69 117.38 197.89 114.7 197.89 111.36H195.89ZM193.034 117.658C191.102 119.079 188.149 119.864 184.026 119.864V121.864C188.351 121.864 191.799 121.049 194.219 119.27L193.034 117.658ZM185.026 120.864V104.448H183.026V120.864H185.026ZM185.026 104.448C185.026 100.958 184.341 98.1795 182.776 96.3168L181.245 97.6032C182.368 98.9405 183.026 101.154 183.026 104.448H185.026ZM182.776 96.3168C181.186 94.4238 178.814 93.56 175.866 93.56V95.56C178.423 95.56 180.147 96.2962 181.245 97.6032L182.776 96.3168ZM175.866 93.56H156.57V95.56H175.866V93.56ZM155.57 94.56V111.36H157.57V94.56H155.57ZM155.57 111.36C155.57 114.236 154.59 116.279 152.714 117.658L153.899 119.27C156.375 117.449 157.57 114.756 157.57 111.36H155.57ZM152.703 117.667C150.838 119.079 147.956 119.864 143.898 119.864V121.864C148.16 121.864 151.55 121.049 153.91 119.261L152.703 117.667ZM144.898 120.864V58.656H142.898V120.864H144.898ZM175.29 84.616C178.554 84.616 181.213 83.6926 183.115 81.7176L181.674 80.3304C180.248 81.8114 178.171 82.616 175.29 82.616V84.616ZM183.127 81.7044C185.011 79.6761 185.89 76.9083 185.89 73.536H183.89C183.89 76.5637 183.106 78.7879 181.662 80.3435L183.127 81.7044ZM185.89 73.536C185.89 70.1228 185.054 67.3782 183.204 65.4919C181.352 63.602 178.65 62.744 175.29 62.744V64.744C178.331 64.744 180.429 65.518 181.776 66.8921C183.127 68.2698 183.89 70.4212 183.89 73.536H185.89ZM175.29 62.744H156.57V64.744H175.29V62.744ZM155.57 63.744V83.616H157.57V63.744H155.57ZM156.57 84.616H175.29V82.616H156.57V84.616ZM213.397 54.528L213.993 55.3307C213.998 55.3271 214.003 55.3235 214.008 55.3198L213.397 54.528ZM222.901 51.936H223.901C223.901 51.3837 223.453 50.936 222.901 50.936V51.936ZM219.541 118.368L218.945 117.565L218.945 117.565L219.541 118.368ZM210.037 120.864H209.037C209.037 121.416 209.485 121.864 210.037 121.864V120.864ZM211.037 61.536C211.037 58.8157 212.03 56.7896 213.993 55.3307L212.801 53.7253C210.285 55.5944 209.037 58.2403 209.037 61.536H211.037ZM214.008 55.3198C216.01 53.7754 218.93 52.936 222.901 52.936V50.936C218.68 50.936 215.264 51.8246 212.786 53.7362L214.008 55.3198ZM221.901 51.936V111.264H223.901V51.936H221.901ZM221.901 111.264C221.901 114.057 220.903 116.111 218.945 117.565L220.137 119.171C222.66 117.297 223.901 114.615 223.901 111.264H221.901ZM218.945 117.565C216.941 119.054 214.015 119.864 210.037 119.864V121.864C214.252 121.864 217.661 121.01 220.137 119.171L218.945 117.565ZM211.037 120.864V61.536H209.037V120.864H211.037ZM247.383 118.752L247.071 119.702L247.071 119.702L247.383 118.752ZM237.495 112.8L236.734 113.449C236.74 113.456 236.745 113.462 236.751 113.469L237.495 112.8ZM244.791 95.808L245.789 95.7554C245.761 95.2243 245.322 94.808 244.791 94.808V95.808ZM249.687 106.848L249.048 107.618L249.056 107.624L249.687 106.848ZM273.111 108.288L273.635 109.14C273.64 109.136 273.645 109.133 273.65 109.13L273.111 108.288ZM275.415 97.152L274.63 97.7716C274.635 97.7786 274.641 97.7854 274.646 97.7922L275.415 97.152ZM270.519 93.984L270.134 94.9071C270.141 94.9101 270.149 94.9131 270.156 94.916L270.519 93.984ZM260.439 91.104L260.21 92.0775C260.215 92.0788 260.221 92.08 260.226 92.0812L260.439 91.104ZM245.559 86.208L245.111 87.1024L245.118 87.1056L245.559 86.208ZM237.783 79.776L236.935 80.306L236.941 80.3157L237.783 79.776ZM238.551 60.672L237.766 60.0518C237.763 60.0555 237.76 60.0594 237.757 60.0632L238.551 60.672ZM247.671 54.24L247.31 53.3074L247.305 53.3094L247.671 54.24ZM274.455 53.952L274.124 54.8959C274.131 54.898 274.137 54.9002 274.143 54.9022L274.455 53.952ZM283.575 59.424L282.838 60.1006C282.842 60.1042 282.845 60.1077 282.848 60.1112L283.575 59.424ZM276.663 74.976L275.666 75.0626C275.712 75.5901 276.161 75.9904 276.691 75.9756L276.663 74.976ZM272.439 65.28L273.083 64.5151L273.083 64.5151L272.439 65.28ZM251.415 64.32L250.893 63.4667L250.893 63.4667L251.415 64.32ZM249.303 74.784L248.498 75.3772C248.503 75.3842 248.508 75.3911 248.513 75.3979L249.303 74.784ZM253.815 77.856L253.424 78.7766C253.432 78.78 253.44 78.7832 253.448 78.7864L253.815 77.856ZM262.839 80.448L262.615 81.4227L262.621 81.424L262.839 80.448ZM278.487 85.44L278.051 86.3404L278.064 86.3462L278.487 85.44ZM286.839 92.064L286.003 92.614L286.01 92.6235L286.839 92.064ZM286.071 111.84L285.275 111.234L285.273 111.237L286.071 111.84ZM276.663 118.56L277.019 119.495L277.026 119.491L276.663 118.56ZM262.455 119.864C256.773 119.864 251.859 119.169 247.695 117.802L247.071 119.702C251.483 121.151 256.616 121.864 262.455 121.864V119.864ZM247.695 117.802C243.522 116.432 240.394 114.527 238.238 112.131L236.751 113.469C239.203 116.193 242.667 118.256 247.071 119.702L247.695 117.802ZM238.255 112.151C236.17 109.708 235.135 106.898 235.135 103.68H233.135C233.135 107.374 234.339 110.644 236.734 113.449L238.255 112.151ZM235.135 103.68C235.135 101.306 235.922 99.6669 237.393 98.5803C238.92 97.4519 241.332 96.808 244.791 96.808V94.808C241.145 94.808 238.229 95.4761 236.204 96.9717C234.123 98.5091 233.135 100.806 233.135 103.68H235.135ZM243.792 95.8606C244.059 100.93 245.774 104.901 249.048 107.618L250.325 106.078C247.583 103.803 246.034 100.414 245.789 95.7554L243.792 95.8606ZM249.056 107.624C252.365 110.312 256.906 111.592 262.551 111.592V109.592C257.188 109.592 253.153 108.376 250.317 106.072L249.056 107.624ZM262.551 111.592C267.186 111.592 270.917 110.812 273.635 109.14L272.587 107.436C270.312 108.836 267.003 109.592 262.551 109.592V111.592ZM273.65 109.13C276.415 107.358 277.855 104.842 277.855 101.664H275.855C275.855 104.118 274.798 106.018 272.571 107.446L273.65 109.13ZM277.855 101.664C277.855 99.6314 277.326 97.8832 276.183 96.5118L274.646 97.7922C275.424 98.7248 275.855 99.9845 275.855 101.664H277.855ZM276.2 96.5324C275.082 95.1166 273.262 93.9778 270.881 93.052L270.156 94.916C272.384 95.7822 273.827 96.7554 274.63 97.7716L276.2 96.5324ZM270.903 93.0609C268.516 92.0662 265.087 91.0911 260.651 90.1268L260.226 92.0812C264.622 93.0369 267.913 93.9818 270.134 94.9071L270.903 93.0609ZM260.667 90.1304C254.431 88.6669 249.552 87.0557 246 85.3104L245.118 87.1056C248.861 88.9443 253.902 90.5971 260.21 92.0775L260.667 90.1304ZM246.006 85.3136C242.528 83.5748 240.099 81.5364 238.625 79.2363L236.941 80.3157C238.666 83.0076 241.421 85.2572 245.111 87.1024L246.006 85.3136ZM238.631 79.246C237.152 76.8804 236.383 73.9074 236.383 70.272H234.383C234.383 74.1886 235.213 77.5516 236.935 80.306L238.631 79.246ZM236.383 70.272C236.383 66.832 237.373 63.8487 239.344 61.2808L237.757 60.0632C235.504 62.9992 234.383 66.416 234.383 70.272H236.383ZM239.335 61.2922C241.382 58.7037 244.265 56.6546 248.037 55.1706L247.305 53.3094C243.268 54.8974 240.071 57.1363 237.766 60.0518L239.335 61.2922ZM248.032 55.1726C251.864 53.6892 256.282 52.936 261.303 52.936V50.936C256.084 50.936 251.414 51.7188 247.31 53.3074L248.032 55.1726ZM261.303 52.936C266.141 52.936 270.41 53.5959 274.124 54.8959L274.785 53.0081C270.819 51.6201 266.32 50.936 261.303 50.936V52.936ZM274.143 54.9022C277.929 56.1434 280.806 57.889 282.838 60.1006L284.311 58.7474C281.991 56.223 278.789 54.3206 274.766 53.0018L274.143 54.9022ZM282.848 60.1112C284.924 62.306 285.935 64.7843 285.935 67.584H287.935C287.935 64.2397 286.705 61.278 284.301 58.7368L282.848 60.1112ZM285.935 67.584C285.935 69.6759 285.198 71.1534 283.783 72.1723C282.306 73.2352 279.972 73.8828 276.635 73.9764L276.691 75.9756C280.201 75.8772 283.004 75.1968 284.951 73.7957C286.959 72.3506 287.935 70.2281 287.935 67.584H285.935ZM277.659 74.8894C277.261 70.3152 275.786 66.7916 273.083 64.5151L271.794 66.0449C273.955 67.8644 275.296 70.8048 275.666 75.0626L277.659 74.8894ZM273.083 64.5151C270.393 62.2497 266.403 61.208 261.303 61.208V63.208C266.186 63.208 269.621 64.2143 271.794 66.0449L273.083 64.5151ZM261.303 61.208C256.929 61.208 253.421 61.9219 250.893 63.4667L251.936 65.1733C254.016 63.9021 257.1 63.208 261.303 63.208V61.208ZM250.893 63.4667C248.312 65.0443 246.959 67.3411 246.959 70.272H248.959C248.959 68.0829 249.91 66.4117 251.936 65.1733L250.893 63.4667ZM246.959 70.272C246.959 72.2365 247.453 73.959 248.498 75.3772L250.108 74.1908C249.361 73.177 248.959 71.8915 248.959 70.272H246.959ZM248.513 75.3979C249.557 76.7402 251.236 77.8485 253.424 78.7766L254.205 76.9354C252.169 76.0715 250.84 75.1318 250.092 74.1701L248.513 75.3979ZM253.448 78.7864C255.629 79.6455 258.693 80.5225 262.615 81.4227L263.062 79.4733C259.176 78.5814 256.224 77.7305 254.181 76.9256L253.448 78.7864ZM262.621 81.424C269.176 82.8877 274.309 84.5314 278.051 86.3403L278.922 84.5396C274.985 82.6366 269.686 80.9523 263.057 79.472L262.621 81.424ZM278.064 86.3462C281.793 88.0863 284.407 90.1896 286.003 92.614L287.674 91.514C285.814 88.6904 282.861 86.3777 278.91 84.5338L278.064 86.3462ZM286.01 92.6235C287.604 94.9846 288.431 97.9466 288.431 101.568H290.431C290.431 97.6374 289.53 94.2634 287.667 91.5045L286.01 92.6235ZM288.431 101.568C288.431 105.266 287.375 108.475 285.275 111.234L286.866 112.446C289.247 109.317 290.431 105.678 290.431 101.568H288.431ZM285.273 111.237C283.23 113.94 280.26 116.081 276.299 117.629L277.026 119.491C281.257 117.839 284.559 115.5 286.868 112.443L285.273 111.237ZM276.307 117.626C272.414 119.109 267.803 119.864 262.455 119.864V121.864C267.986 121.864 272.848 121.083 277.019 119.494L276.307 117.626ZM314.527 63.936H315.527C315.527 63.3837 315.079 62.936 314.527 62.936V63.936ZM291.391 63.936H290.391C290.391 64.4883 290.839 64.936 291.391 64.936V63.936ZM350.527 52.8H351.527C351.527 52.2477 351.079 51.8 350.527 51.8V52.8ZM327.391 63.936V62.936C326.839 62.936 326.391 63.3837 326.391 63.936H327.391ZM324.127 118.464L324.72 119.27C324.725 119.266 324.73 119.262 324.735 119.258L324.127 118.464ZM314.527 120.864H313.527C313.527 121.416 313.975 121.864 314.527 121.864V120.864ZM314.527 62.936H291.391V64.936H314.527V62.936ZM292.391 63.936C292.391 60.3549 293.204 57.8557 294.653 56.2551C296.084 54.6734 298.292 53.8 301.471 53.8V51.8C297.93 51.8 295.098 52.7826 293.17 54.9129C291.259 57.0243 290.391 60.0931 290.391 63.936H292.391ZM301.471 53.8H350.527V51.8H301.471V53.8ZM349.527 52.8C349.527 56.3791 348.708 58.8768 347.245 60.4774C345.798 62.061 343.565 62.936 340.351 62.936V64.936C343.922 64.936 346.776 63.955 348.721 61.8266C350.651 59.7152 351.527 56.6449 351.527 52.8H349.527ZM340.351 62.936H327.391V64.936H340.351V62.936ZM326.391 63.936V111.36H328.391V63.936H326.391ZM326.391 111.36C326.391 114.164 325.416 116.22 323.52 117.67L324.735 119.258C327.19 117.38 328.391 114.7 328.391 111.36H326.391ZM323.535 117.658C321.603 119.079 318.65 119.864 314.527 119.864V121.864C318.852 121.864 322.299 121.049 324.72 119.27L323.535 117.658ZM315.527 120.864V63.936H313.527V120.864H315.527ZM364.053 54.528L364.65 55.3307C364.655 55.3271 364.659 55.3235 364.664 55.3198L364.053 54.528ZM373.557 51.936H374.557C374.557 51.3837 374.11 50.936 373.557 50.936V51.936ZM370.197 118.368L369.601 117.565L369.601 117.565L370.197 118.368ZM360.693 120.864H359.693C359.693 121.416 360.141 121.864 360.693 121.864V120.864ZM361.693 61.536C361.693 58.8157 362.686 56.7896 364.65 55.3307L363.457 53.7253C360.941 55.5944 359.693 58.2403 359.693 61.536H361.693ZM364.664 55.3198C366.666 53.7754 369.587 52.936 373.557 52.936V50.936C369.336 50.936 365.921 51.8246 363.443 53.7362L364.664 55.3198ZM372.557 51.936V111.264H374.557V51.936H372.557ZM372.557 111.264C372.557 114.057 371.559 116.111 369.601 117.565L370.794 119.171C373.316 117.297 374.557 114.615 374.557 111.264H372.557ZM369.601 117.565C367.597 119.054 364.671 119.864 360.693 119.864V121.864C364.908 121.864 368.317 121.01 370.794 119.171L369.601 117.565ZM361.693 120.864V61.536H359.693V120.864H361.693Z" fill="url(#paint1_linear_2_3)" mask="url(#path-1-outside-1_2_3)"/>
</g>
<g filter="url(#filter1_d_2_3)">
<mask id="path-3-outside-2_2_3" maskUnits="userSpaceOnUse" x="403" y="64" width="282" height="58" fill="black">
<rect fill="white" x="403" y="64" width="282" height="58"/>
<path d="M445.344 65.5C449.719 65.75 453.312 67.4375 456.125 70.5625C458.938 73.625 460.969 77.125 462.219 81.0625C463.469 85 464.094 89.0312 464.094 93.1562C464.094 97.2812 463.469 101.312 462.219 105.25C461.031 109.188 459 112.719 456.125 115.844C453.312 118.906 449.719 120.562 445.344 120.812H410.844C409.156 120.75 407.719 120.156 406.531 119.031C405.406 117.844 404.812 116.406 404.75 114.719V91.4688C404.812 89.7188 405.469 88.2812 406.719 87.1562C407.969 85.9688 409.469 85.375 411.219 85.375C412.906 85.4375 414.344 86.0625 415.531 87.25C416.719 88.375 417.344 89.7812 417.406 91.4688V105.719C417.406 107.406 418.281 108.25 420.031 108.25H442.156C444.531 108.125 446.5 107.219 448.062 105.531C449.625 103.844 450.75 101.938 451.438 99.8125C452.188 97.625 452.562 95.4062 452.562 93.1562C452.562 90.9062 452.188 88.7188 451.438 86.5938C450.75 84.4062 449.625 82.4688 448.062 80.7812C446.5 79.0938 444.531 78.1875 442.156 78.0625H410.844C407.094 77.75 405.062 75.7188 404.75 71.9688C404.75 70.2188 405.312 68.7188 406.438 67.4688C407.625 66.2188 409.094 65.5625 410.844 65.5H445.344ZM524.656 65.5C527.844 65.5625 530.688 66.5625 533.188 68.5C535.688 70.4375 537.688 72.75 539.188 75.4375C540.75 78.125 541.906 80.9688 542.656 83.9688C543.406 86.9688 543.781 90.0312 543.781 93.1562C543.781 97.2812 543.125 101.344 541.812 105.344C540.562 109.281 538.469 112.781 535.531 115.844C532.656 118.906 529.031 120.562 524.656 120.812H491.938C487.562 120.625 483.906 119 480.969 115.938C478.031 112.875 475.938 109.344 474.688 105.344C473.5 101.344 472.906 97.2812 472.906 93.1562C472.906 89.0312 473.531 85 474.781 81.0625C476.031 77.0625 478.094 73.5312 480.969 70.4688C483.906 67.3438 487.562 65.6875 491.938 65.5H493.719H522.875H524.656ZM521.469 108.25C523.844 108.125 525.812 107.25 527.375 105.625C529 103.938 530.156 102 530.844 99.8125C531.531 97.625 531.875 95.4062 531.875 93.1562C531.875 90.9062 531.5 88.7188 530.75 86.5938C530.062 84.4062 528.938 82.4688 527.375 80.7812C525.812 79.0938 523.844 78.1875 521.469 78.0625H494.844C492.469 78.1875 490.5 79.0938 488.938 80.7812C487.375 82.4688 486.219 84.4062 485.469 86.5938C484.781 88.7188 484.438 90.9062 484.438 93.1562C484.438 95.4062 484.781 97.625 485.469 99.8125C486.156 102 487.281 103.938 488.844 105.625C490.469 107.25 492.469 108.125 494.844 108.25H521.469ZM575.375 78.0625C573 78.1875 571 79.0938 569.375 80.7812C567.812 82.4688 566.688 84.4062 566 86.5938C565.312 88.7188 564.969 90.9062 564.969 93.1562C564.969 95.4062 565.281 97.625 565.906 99.8125C566.594 102 567.75 103.938 569.375 105.625C571 107.25 573 108.125 575.375 108.25H606.312C610.25 108.625 612.406 110.781 612.781 114.719C612.719 116.469 612.062 117.938 610.812 119.125C609.562 120.25 608.062 120.812 606.312 120.812H576.406H572.094C567.719 120.562 564.125 118.906 561.312 115.844C558.5 112.719 556.469 109.188 555.219 105.25C554.031 101.312 553.438 97.2812 553.438 93.1562C553.438 90.0938 553.781 87.0625 554.469 84.0625C555.156 81.0625 556.219 78.2188 557.656 75.5312C559.156 72.7812 561.125 70.4375 563.562 68.5C566.062 66.5625 568.906 65.5625 572.094 65.5H573.875H606.312C610.25 65.875 612.406 68.0312 612.781 71.9688C612.781 73.7188 612.125 75.1875 610.812 76.375C609.562 77.5 608.062 78.0625 606.312 78.0625H575.375ZM682.062 71.7812C682.062 73.5312 681.438 75 680.188 76.1875C679 77.4375 677.531 78.0625 675.781 78.0625H638.281C637.094 78.125 636.094 78.4062 635.281 78.9062C634.531 79.3438 633.969 79.875 633.594 80.5C633.219 81.0625 633.031 81.6562 633.031 82.2812C633.031 82.9062 633.219 83.5312 633.594 84.1562C633.969 84.7188 634.531 85.25 635.281 85.75C636.094 86.1875 637.094 86.4375 638.281 86.5H664.906C669.281 86.625 672.875 87.6562 675.688 89.5938C678.562 91.4688 680.594 93.6562 681.781 96.1562C683.031 98.5938 683.656 101.094 683.656 103.656C683.656 106.156 683.031 108.656 681.781 111.156C680.531 113.594 678.5 115.781 675.688 117.719C672.875 119.594 669.281 120.531 664.906 120.531H664.344C663.969 120.594 663.594 120.625 663.219 120.625H627.781C626.031 120.625 624.531 120.031 623.281 118.844C622.094 117.594 621.5 116.094 621.5 114.344C621.5 112.594 622.125 111.125 623.375 109.938C624.562 108.688 626.031 108.062 627.781 108.062H665.469C666.656 108.125 667.625 107.906 668.375 107.406C669.188 106.906 669.781 106.344 670.156 105.719C670.531 105.031 670.719 104.344 670.719 103.656C670.719 103.219 670.531 102.625 670.156 101.875C669.781 101.062 669.188 100.406 668.375 99.9062C667.625 99.4062 666.656 99.125 665.469 99.0625H638.844C634.469 98.9375 630.844 97.9375 627.969 96.0625C625.156 94.1875 623.125 92.0625 621.875 89.6875C620.688 87.25 620.094 84.7812 620.094 82.2812C620.094 79.8438 620.719 77.4375 621.969 75.0625C623.219 72.625 625.25 70.4688 628.062 68.5938C630.875 66.7188 634.469 65.7188 638.844 65.5938H639.406C639.781 65.5312 640.156 65.5 640.531 65.5H675.781C677.531 65.5 679 66.125 680.188 67.375C681.438 68.5625 682.062 70.0312 682.062 71.7812Z"/>
</mask>
<path d="M445.344 65.5C449.719 65.75 453.312 67.4375 456.125 70.5625C458.938 73.625 460.969 77.125 462.219 81.0625C463.469 85 464.094 89.0312 464.094 93.1562C464.094 97.2812 463.469 101.312 462.219 105.25C461.031 109.188 459 112.719 456.125 115.844C453.312 118.906 449.719 120.562 445.344 120.812H410.844C409.156 120.75 407.719 120.156 406.531 119.031C405.406 117.844 404.812 116.406 404.75 114.719V91.4688C404.812 89.7188 405.469 88.2812 406.719 87.1562C407.969 85.9688 409.469 85.375 411.219 85.375C412.906 85.4375 414.344 86.0625 415.531 87.25C416.719 88.375 417.344 89.7812 417.406 91.4688V105.719C417.406 107.406 418.281 108.25 420.031 108.25H442.156C444.531 108.125 446.5 107.219 448.062 105.531C449.625 103.844 450.75 101.938 451.438 99.8125C452.188 97.625 452.562 95.4062 452.562 93.1562C452.562 90.9062 452.188 88.7188 451.438 86.5938C450.75 84.4062 449.625 82.4688 448.062 80.7812C446.5 79.0938 444.531 78.1875 442.156 78.0625H410.844C407.094 77.75 405.062 75.7188 404.75 71.9688C404.75 70.2188 405.312 68.7188 406.438 67.4688C407.625 66.2188 409.094 65.5625 410.844 65.5H445.344ZM524.656 65.5C527.844 65.5625 530.688 66.5625 533.188 68.5C535.688 70.4375 537.688 72.75 539.188 75.4375C540.75 78.125 541.906 80.9688 542.656 83.9688C543.406 86.9688 543.781 90.0312 543.781 93.1562C543.781 97.2812 543.125 101.344 541.812 105.344C540.562 109.281 538.469 112.781 535.531 115.844C532.656 118.906 529.031 120.562 524.656 120.812H491.938C487.562 120.625 483.906 119 480.969 115.938C478.031 112.875 475.938 109.344 474.688 105.344C473.5 101.344 472.906 97.2812 472.906 93.1562C472.906 89.0312 473.531 85 474.781 81.0625C476.031 77.0625 478.094 73.5312 480.969 70.4688C483.906 67.3438 487.562 65.6875 491.938 65.5H493.719H522.875H524.656ZM521.469 108.25C523.844 108.125 525.812 107.25 527.375 105.625C529 103.938 530.156 102 530.844 99.8125C531.531 97.625 531.875 95.4062 531.875 93.1562C531.875 90.9062 531.5 88.7188 530.75 86.5938C530.062 84.4062 528.938 82.4688 527.375 80.7812C525.812 79.0938 523.844 78.1875 521.469 78.0625H494.844C492.469 78.1875 490.5 79.0938 488.938 80.7812C487.375 82.4688 486.219 84.4062 485.469 86.5938C484.781 88.7188 484.438 90.9062 484.438 93.1562C484.438 95.4062 484.781 97.625 485.469 99.8125C486.156 102 487.281 103.938 488.844 105.625C490.469 107.25 492.469 108.125 494.844 108.25H521.469ZM575.375 78.0625C573 78.1875 571 79.0938 569.375 80.7812C567.812 82.4688 566.688 84.4062 566 86.5938C565.312 88.7188 564.969 90.9062 564.969 93.1562C564.969 95.4062 565.281 97.625 565.906 99.8125C566.594 102 567.75 103.938 569.375 105.625C571 107.25 573 108.125 575.375 108.25H606.312C610.25 108.625 612.406 110.781 612.781 114.719C612.719 116.469 612.062 117.938 610.812 119.125C609.562 120.25 608.062 120.812 606.312 120.812H576.406H572.094C567.719 120.562 564.125 118.906 561.312 115.844C558.5 112.719 556.469 109.188 555.219 105.25C554.031 101.312 553.438 97.2812 553.438 93.1562C553.438 90.0938 553.781 87.0625 554.469 84.0625C555.156 81.0625 556.219 78.2188 557.656 75.5312C559.156 72.7812 561.125 70.4375 563.562 68.5C566.062 66.5625 568.906 65.5625 572.094 65.5H573.875H606.312C610.25 65.875 612.406 68.0312 612.781 71.9688C612.781 73.7188 612.125 75.1875 610.812 76.375C609.562 77.5 608.062 78.0625 606.312 78.0625H575.375ZM682.062 71.7812C682.062 73.5312 681.438 75 680.188 76.1875C679 77.4375 677.531 78.0625 675.781 78.0625H638.281C637.094 78.125 636.094 78.4062 635.281 78.9062C634.531 79.3438 633.969 79.875 633.594 80.5C633.219 81.0625 633.031 81.6562 633.031 82.2812C633.031 82.9062 633.219 83.5312 633.594 84.1562C633.969 84.7188 634.531 85.25 635.281 85.75C636.094 86.1875 637.094 86.4375 638.281 86.5H664.906C669.281 86.625 672.875 87.6562 675.688 89.5938C678.562 91.4688 680.594 93.6562 681.781 96.1562C683.031 98.5938 683.656 101.094 683.656 103.656C683.656 106.156 683.031 108.656 681.781 111.156C680.531 113.594 678.5 115.781 675.688 117.719C672.875 119.594 669.281 120.531 664.906 120.531H664.344C663.969 120.594 663.594 120.625 663.219 120.625H627.781C626.031 120.625 624.531 120.031 623.281 118.844C622.094 117.594 621.5 116.094 621.5 114.344C621.5 112.594 622.125 111.125 623.375 109.938C624.562 108.688 626.031 108.062 627.781 108.062H665.469C666.656 108.125 667.625 107.906 668.375 107.406C669.188 106.906 669.781 106.344 670.156 105.719C670.531 105.031 670.719 104.344 670.719 103.656C670.719 103.219 670.531 102.625 670.156 101.875C669.781 101.062 669.188 100.406 668.375 99.9062C667.625 99.4062 666.656 99.125 665.469 99.0625H638.844C634.469 98.9375 630.844 97.9375 627.969 96.0625C625.156 94.1875 623.125 92.0625 621.875 89.6875C620.688 87.25 620.094 84.7812 620.094 82.2812C620.094 79.8438 620.719 77.4375 621.969 75.0625C623.219 72.625 625.25 70.4688 628.062 68.5938C630.875 66.7188 634.469 65.7188 638.844 65.5938H639.406C639.781 65.5312 640.156 65.5 640.531 65.5H675.781C677.531 65.5 679 66.125 680.188 67.375C681.438 68.5625 682.062 70.0312 682.062 71.7812Z" fill="url(#paint2_linear_2_3)"/>
<path d="M445.344 65.5L445.401 64.5016L445.372 64.5H445.344V65.5ZM456.125 70.5625L455.382 71.2315L455.388 71.2389L456.125 70.5625ZM462.219 105.25L461.266 104.947L461.263 104.954L461.261 104.961L462.219 105.25ZM456.125 115.844L455.389 115.167L455.388 115.167L456.125 115.844ZM445.344 120.812V121.812H445.372L445.401 121.811L445.344 120.812ZM410.844 120.812L410.807 121.812L410.825 121.812H410.844V120.812ZM406.531 119.031L405.805 119.719L405.824 119.739L405.844 119.757L406.531 119.031ZM404.75 114.719H403.75V114.737L403.751 114.756L404.75 114.719ZM404.75 91.4688L403.751 91.4331L403.75 91.4509V91.4688H404.75ZM406.719 87.1562L407.388 87.8995L407.398 87.8905L407.407 87.8812L406.719 87.1562ZM411.219 85.375L411.256 84.3757L411.237 84.375H411.219V85.375ZM415.531 87.25L414.824 87.9571L414.834 87.9667L414.844 87.976L415.531 87.25ZM417.406 91.4688H418.406V91.4502L418.406 91.4317L417.406 91.4688ZM442.156 108.25V109.25H442.183L442.209 109.249L442.156 108.25ZM451.438 99.8125L450.492 99.4882L450.489 99.4964L450.486 99.5047L451.438 99.8125ZM451.438 86.5938L450.484 86.8936L450.489 86.9102L450.495 86.9266L451.438 86.5938ZM442.156 78.0625L442.209 77.0639L442.183 77.0625H442.156V78.0625ZM410.844 78.0625L410.761 79.059L410.802 79.0625H410.844V78.0625ZM404.75 71.9688H403.75V72.0103L403.753 72.0518L404.75 71.9688ZM406.438 67.4688L405.713 66.78L405.703 66.7898L405.694 66.7998L406.438 67.4688ZM410.844 65.5V64.5H410.826L410.808 64.5006L410.844 65.5ZM445.287 66.4984C449.411 66.734 452.754 68.3115 455.382 71.2315L456.868 69.8935C453.871 66.5635 450.027 64.766 445.401 64.5016L445.287 66.4984ZM455.388 71.2389C458.103 74.1948 460.06 77.5674 461.266 81.3651L463.172 80.7599C461.877 76.6826 459.772 73.0552 456.862 69.8861L455.388 71.2389ZM461.266 81.3651C462.485 85.2049 463.094 89.1341 463.094 93.1562H465.094C465.094 88.9284 464.453 84.7951 463.172 80.7599L461.266 81.3651ZM463.094 93.1562C463.094 97.1784 462.485 101.108 461.266 104.947L463.172 105.553C464.453 101.517 465.094 97.3841 465.094 93.1562H463.094ZM461.261 104.961C460.119 108.75 458.165 112.149 455.389 115.167L456.861 116.521C459.835 113.288 461.944 109.625 463.176 105.539L461.261 104.961ZM455.388 115.167C452.762 118.027 449.417 119.578 445.287 119.814L445.401 121.811C450.02 121.547 453.863 119.785 456.862 116.52L455.388 115.167ZM445.344 119.812H410.844V121.812H445.344V119.812ZM410.881 119.813C409.428 119.759 408.224 119.257 407.219 118.305L405.844 119.757C407.214 121.055 408.885 121.741 410.807 121.812L410.881 119.813ZM407.257 118.344C406.305 117.339 405.803 116.135 405.749 114.682L403.751 114.756C403.822 116.678 404.507 118.349 405.805 119.719L407.257 118.344ZM405.75 114.719V91.4688H403.75V114.719H405.75ZM405.749 91.5044C405.803 90.0128 406.348 88.835 407.388 87.8995L406.05 86.413C404.589 87.7275 403.822 89.4247 403.751 91.4331L405.749 91.5044ZM407.407 87.8812C408.469 86.8732 409.721 86.375 411.219 86.375V84.375C409.217 84.375 407.469 85.0643 406.03 86.4313L407.407 87.8812ZM411.182 86.3743C412.619 86.4275 413.816 86.9492 414.824 87.9571L416.238 86.5429C414.871 85.1758 413.194 84.4475 411.256 84.3757L411.182 86.3743ZM414.844 87.976C415.834 88.9146 416.354 90.0704 416.407 91.5058L418.406 91.4317C418.334 89.4921 417.603 87.8354 416.219 86.524L414.844 87.976ZM416.406 91.4688V105.719H418.406V91.4688H416.406ZM416.406 105.719C416.406 106.726 416.669 107.663 417.368 108.337C418.061 109.005 419.011 109.25 420.031 109.25V107.25C419.301 107.25 418.939 107.074 418.757 106.897C418.581 106.728 418.406 106.399 418.406 105.719H416.406ZM420.031 109.25H442.156V107.25H420.031V109.25ZM442.209 109.249C444.834 109.11 447.05 108.096 448.796 106.211L447.329 104.852C445.95 106.341 444.229 107.14 442.104 107.251L442.209 109.249ZM448.796 106.211C450.454 104.42 451.655 102.388 452.389 100.12L450.486 99.5047C449.845 101.487 448.796 103.268 447.329 104.852L448.796 106.211ZM452.383 100.137C453.168 97.8479 453.562 95.5197 453.562 93.1562H451.562C451.562 95.2928 451.207 97.4021 450.492 99.4882L452.383 100.137ZM453.562 93.1562C453.562 90.7927 453.168 88.4927 452.38 86.2609L450.495 86.9266C451.207 88.9448 451.562 91.0198 451.562 93.1562H453.562ZM452.391 86.2939C451.659 83.9647 450.459 81.8977 448.796 80.1018L447.329 81.4607C448.791 83.0398 449.841 84.8478 450.484 86.8936L452.391 86.2939ZM448.796 80.1018C447.05 78.2162 444.834 77.202 442.209 77.0639L442.104 79.0611C444.229 79.173 445.95 79.9713 447.329 81.4607L448.796 80.1018ZM442.156 77.0625H410.844V79.0625H442.156V77.0625ZM410.927 77.066C409.213 76.9232 408.017 76.4 407.215 75.5976C406.413 74.7952 405.889 73.5991 405.747 71.8857L403.753 72.0518C403.923 74.0884 404.572 75.7829 405.801 77.0118C407.03 78.2407 408.724 78.8893 410.761 79.059L410.927 77.066ZM405.75 71.9688C405.75 70.4548 406.228 69.1961 407.181 68.1377L405.694 66.7998C404.397 68.2414 403.75 69.9827 403.75 71.9688H405.75ZM407.162 68.1575C408.167 67.1006 409.386 66.5527 410.879 66.4994L410.808 64.5006C408.801 64.5723 407.083 65.3369 405.713 66.78L407.162 68.1575ZM410.844 66.5H445.344V64.5H410.844V66.5ZM524.656 65.5L524.676 64.5002L524.666 64.5H524.656V65.5ZM539.188 75.4375L538.314 75.9249L538.319 75.9325L538.323 75.9401L539.188 75.4375ZM541.812 105.344L540.862 105.032L540.859 105.041L541.812 105.344ZM535.531 115.844L534.81 115.151L534.802 115.159L535.531 115.844ZM524.656 120.812V121.812H524.685L524.713 121.811L524.656 120.812ZM491.938 120.812L491.895 121.812L491.916 121.812H491.938V120.812ZM474.688 105.344L473.729 105.628L473.731 105.635L473.733 105.642L474.688 105.344ZM474.781 81.0625L475.734 81.3651L475.736 81.3608L474.781 81.0625ZM480.969 70.4688L480.24 69.7838L480.24 69.7843L480.969 70.4688ZM491.938 65.5V64.5H491.916L491.895 64.5009L491.938 65.5ZM521.469 108.25V109.25H521.495L521.521 109.249L521.469 108.25ZM527.375 105.625L526.655 104.931L526.654 104.932L527.375 105.625ZM530.75 86.5938L529.796 86.8936L529.801 86.9102L529.807 86.9266L530.75 86.5938ZM521.469 78.0625L521.521 77.0639L521.495 77.0625H521.469V78.0625ZM494.844 78.0625V77.0625H494.817L494.791 77.0639L494.844 78.0625ZM485.469 86.5938L484.523 86.2694L484.52 86.2777L484.517 86.2859L485.469 86.5938ZM488.844 105.625L488.11 106.304L488.123 106.319L488.137 106.332L488.844 105.625ZM494.844 108.25L494.791 109.249L494.817 109.25H494.844V108.25ZM524.637 66.4998C527.611 66.5581 530.246 67.4858 532.575 69.2904L533.8 67.7096C531.129 65.6392 528.077 64.5669 524.676 64.5002L524.637 66.4998ZM532.575 69.2904C534.972 71.1478 536.882 73.3582 538.314 75.9249L540.061 74.9501C538.493 72.1418 536.403 69.7272 533.8 67.7096L532.575 69.2904ZM538.323 75.9401C539.838 78.5468 540.959 81.303 541.686 84.2113L543.626 83.7262C542.853 80.6345 541.662 77.7032 540.052 74.9349L538.323 75.9401ZM541.686 84.2113C542.416 87.1311 542.781 90.1121 542.781 93.1562H544.781C544.781 89.9504 544.396 86.8064 543.626 83.7262L541.686 84.2113ZM542.781 93.1562C542.781 97.1732 542.143 101.131 540.862 105.032L542.763 105.656C544.107 101.557 544.781 97.3893 544.781 93.1562H542.781ZM540.859 105.041C539.657 108.829 537.644 112.196 534.81 115.152L536.253 116.536C539.293 113.366 541.468 109.734 542.766 105.646L540.859 105.041ZM534.802 115.159C532.111 118.026 528.73 119.578 524.599 119.814L524.713 121.811C529.332 121.547 533.202 119.786 536.26 116.528L534.802 115.159ZM524.656 119.812H491.938V121.812H524.656V119.812ZM491.98 119.813C487.854 119.637 484.443 118.115 481.69 115.245L480.247 116.63C483.369 119.885 487.271 121.613 491.895 121.812L491.98 119.813ZM481.69 115.245C478.859 112.293 476.845 108.896 475.642 105.045L473.733 105.642C475.03 109.791 477.204 113.457 480.247 116.63L481.69 115.245ZM475.646 105.059C474.486 101.15 473.906 97.1838 473.906 93.1562H471.906C471.906 97.3787 472.514 101.537 473.729 105.628L475.646 105.059ZM473.906 93.1562C473.906 89.1341 474.515 85.2049 475.734 81.3651L473.828 80.7599C472.547 84.7951 471.906 88.9284 471.906 93.1562H473.906ZM475.736 81.3608C476.941 77.5052 478.926 74.1059 481.698 71.1532L480.24 69.7843C477.262 72.9566 475.122 76.6198 473.827 80.7642L475.736 81.3608ZM481.697 71.1537C484.452 68.2233 487.86 66.6757 491.98 66.4991L491.895 64.5009C487.265 64.6993 483.361 66.4642 480.24 69.7838L481.697 71.1537ZM491.938 66.5H493.719V64.5H491.938V66.5ZM493.719 66.5H522.875V64.5H493.719V66.5ZM522.875 66.5H524.656V64.5H522.875V66.5ZM521.521 109.249C524.134 109.111 526.347 108.137 528.096 106.318L526.654 104.932C525.278 106.363 523.553 107.139 521.416 107.251L521.521 109.249ZM528.095 106.319C529.825 104.522 531.063 102.451 531.798 100.112L529.89 99.5127C529.25 101.549 528.175 103.353 526.655 104.931L528.095 106.319ZM531.798 100.112C532.515 97.8297 532.875 95.5099 532.875 93.1562H530.875C530.875 95.3026 530.547 97.4203 529.89 99.5127L531.798 100.112ZM532.875 93.1562C532.875 90.7927 532.481 88.4927 531.693 86.2609L529.807 86.9266C530.519 88.9448 530.875 91.0198 530.875 93.1562H532.875ZM531.704 86.2939C530.972 83.9647 529.772 81.8977 528.109 80.1018L526.641 81.4607C528.103 83.0398 529.153 84.8478 529.796 86.8936L531.704 86.2939ZM528.109 80.1018C526.363 78.2162 524.146 77.202 521.521 77.0639L521.416 79.0611C523.541 79.173 525.262 79.9713 526.641 81.4607L528.109 80.1018ZM521.469 77.0625H494.844V79.0625H521.469V77.0625ZM494.791 77.0639C492.166 77.202 489.95 78.2162 488.204 80.1018L489.671 81.4607C491.05 79.9713 492.771 79.173 494.896 79.0611L494.791 77.0639ZM488.204 80.1018C486.546 81.8922 485.318 83.9508 484.523 86.2694L486.415 86.9181C487.12 84.8617 488.204 83.0453 489.671 81.4607L488.204 80.1018ZM484.517 86.2859C483.797 88.5111 483.438 90.8025 483.438 93.1562H485.438C485.438 91.01 485.765 88.9264 486.42 86.9016L484.517 86.2859ZM483.438 93.1562C483.438 95.5099 483.797 97.8297 484.515 100.112L486.423 99.5127C485.765 97.4203 485.438 95.3026 485.438 93.1562H483.438ZM484.515 100.112C485.247 102.442 486.447 104.509 488.11 106.304L489.578 104.946C488.115 103.366 487.066 101.558 486.423 99.5127L484.515 100.112ZM488.137 106.332C489.943 108.138 492.179 109.111 494.791 109.249L494.896 107.251C492.759 107.139 490.995 106.362 489.551 104.918L488.137 106.332ZM494.844 109.25H521.469V107.25H494.844V109.25ZM575.375 78.0625V77.0625H575.349L575.322 77.0639L575.375 78.0625ZM569.375 80.7812L568.655 80.0876L568.648 80.0947L568.641 80.1018L569.375 80.7812ZM566 86.5938L566.951 86.9016L566.954 86.8936L566 86.5938ZM565.906 99.8125L564.945 100.087L564.948 100.1L564.952 100.112L565.906 99.8125ZM569.375 105.625L568.655 106.319L568.661 106.325L568.668 106.332L569.375 105.625ZM575.375 108.25L575.322 109.249L575.349 109.25H575.375V108.25ZM606.312 108.25L606.407 107.255L606.36 107.25H606.312V108.25ZM612.781 114.719L613.781 114.754L613.783 114.689L613.777 114.624L612.781 114.719ZM610.812 119.125L611.481 119.868L611.491 119.859L611.501 119.85L610.812 119.125ZM572.094 120.812L572.037 121.811L572.065 121.812H572.094V120.812ZM561.312 115.844L560.569 116.513L560.576 116.52L561.312 115.844ZM555.219 105.25L554.261 105.539L554.263 105.546L554.266 105.553L555.219 105.25ZM557.656 75.5312L556.778 75.0524L556.774 75.0596L557.656 75.5312ZM563.562 68.5L562.95 67.7095L562.94 67.7172L563.562 68.5ZM572.094 65.5V64.5H572.084L572.074 64.5002L572.094 65.5ZM606.312 65.5L606.407 64.5045L606.36 64.5H606.312V65.5ZM612.781 71.9688H613.781V71.9212L613.777 71.8739L612.781 71.9688ZM610.812 76.375L611.481 77.1183L611.483 77.1165L610.812 76.375ZM575.322 77.0639C572.699 77.202 570.458 78.2144 568.655 80.0876L570.095 81.4749C571.542 79.9731 573.301 79.173 575.428 79.0611L575.322 77.0639ZM568.641 80.1018C566.978 81.8977 565.778 83.9647 565.046 86.2939L566.954 86.8936C567.597 84.8478 568.647 83.0398 570.109 81.4607L568.641 80.1018ZM565.049 86.2859C564.329 88.5111 563.969 90.8025 563.969 93.1562H565.969C565.969 91.01 566.296 88.9264 566.951 86.9016L565.049 86.2859ZM563.969 93.1562C563.969 95.5002 564.294 97.8114 564.945 100.087L566.868 99.5378C566.268 97.4386 565.969 95.3123 565.969 93.1562H563.969ZM564.952 100.112C565.687 102.451 566.925 104.522 568.655 106.319L570.095 104.931C568.575 103.353 567.5 101.549 566.86 99.5127L564.952 100.112ZM568.668 106.332C570.474 108.138 572.71 109.111 575.322 109.249L575.428 107.251C573.29 107.139 571.526 106.362 570.082 104.918L568.668 106.332ZM575.375 109.25H606.312V107.25H575.375V109.25ZM606.218 109.245C608.025 109.418 609.305 109.985 610.176 110.856C611.046 111.726 611.614 113.006 611.786 114.814L613.777 114.624C613.574 112.494 612.876 110.727 611.59 109.441C610.304 108.155 608.538 107.457 606.407 107.255L606.218 109.245ZM611.782 114.683C611.729 116.176 611.181 117.396 610.124 118.4L611.501 119.85C612.944 118.479 613.709 116.761 613.781 114.754L611.782 114.683ZM610.144 118.382C609.085 119.334 607.826 119.812 606.312 119.812V121.812C608.299 121.812 610.04 121.166 611.481 119.868L610.144 118.382ZM606.312 119.812H576.406V121.812H606.312V119.812ZM576.406 119.812H572.094V121.812H576.406V119.812ZM572.151 119.814C568.02 119.578 564.675 118.027 562.049 115.167L560.576 116.52C563.575 119.785 567.417 121.547 572.037 121.811L572.151 119.814ZM562.056 115.175C559.337 112.154 557.378 108.747 556.172 104.947L554.266 105.553C555.559 109.628 557.663 113.284 560.569 116.513L562.056 115.175ZM556.176 104.961C555.017 101.118 554.438 97.1837 554.438 93.1562H552.438C552.438 97.3788 553.046 101.507 554.261 105.539L556.176 104.961ZM554.438 93.1562C554.438 90.1693 554.773 87.213 555.443 84.2859L553.494 83.8391C552.79 86.912 552.438 90.0182 552.438 93.1562H554.438ZM555.443 84.2859C556.111 81.3715 557.143 78.6114 558.538 76.0029L556.774 75.0596C555.295 77.8261 554.201 80.7535 553.494 83.8391L555.443 84.2859ZM558.534 76.0101C559.971 73.3768 561.853 71.1366 564.185 69.2828L562.94 67.7172C560.397 69.7384 558.342 72.1857 556.778 75.0524L558.534 76.0101ZM564.175 69.2904C566.504 67.4858 569.139 66.5581 572.113 66.4998L572.074 64.5002C568.673 64.5669 565.621 65.6392 562.95 67.7096L564.175 69.2904ZM572.094 66.5H573.875V64.5H572.094V66.5ZM573.875 66.5H606.312V64.5H573.875V66.5ZM606.218 66.4955C608.025 66.6676 609.305 67.2353 610.176 68.1055C611.046 68.9758 611.614 70.2565 611.786 72.0636L613.777 71.8739C613.574 69.7435 612.876 67.9774 611.59 66.6913C610.304 65.4053 608.538 64.7074 606.407 64.5045L606.218 66.4955ZM611.781 71.9688C611.781 73.4325 611.247 74.6331 610.142 75.6335L611.483 77.1165C613.003 75.7419 613.781 74.005 613.781 71.9688H611.781ZM610.144 75.6317C609.085 76.5842 607.826 77.0625 606.312 77.0625V79.0625C608.299 79.0625 610.04 78.4158 611.481 77.1183L610.144 75.6317ZM606.312 77.0625H575.375V79.0625H606.312V77.0625ZM680.188 76.1875L679.499 75.4625L679.48 75.4802L679.462 75.4987L680.188 76.1875ZM638.281 78.0625V77.0625H638.255L638.229 77.0639L638.281 78.0625ZM635.281 78.9062L635.785 79.77L635.795 79.7641L635.805 79.7579L635.281 78.9062ZM633.594 80.5L634.426 81.0547L634.439 81.0349L634.451 81.0145L633.594 80.5ZM633.594 84.1562L632.736 84.6707L632.749 84.6912L632.762 84.711L633.594 84.1562ZM635.281 85.75L634.727 86.582L634.766 86.6082L634.807 86.6305L635.281 85.75ZM638.281 86.5L638.229 87.4986L638.255 87.5H638.281V86.5ZM664.906 86.5L664.935 85.5004L664.921 85.5H664.906V86.5ZM675.688 89.5938L675.12 90.4173L675.131 90.4244L675.141 90.4314L675.688 89.5938ZM681.781 96.1562L680.878 96.5853L680.884 96.599L680.891 96.6126L681.781 96.1562ZM681.781 111.156L682.671 111.613L682.676 111.603L681.781 111.156ZM675.688 117.719L676.242 118.551L676.249 118.547L676.255 118.542L675.688 117.719ZM664.344 120.531V119.531H664.261L664.179 119.545L664.344 120.531ZM623.281 118.844L622.556 119.533L622.574 119.551L622.592 119.569L623.281 118.844ZM623.375 109.938L624.064 110.662L624.082 110.645L624.1 110.626L623.375 109.938ZM665.469 108.062L665.521 107.064L665.495 107.062H665.469V108.062ZM668.375 107.406L667.851 106.555L667.835 106.564L667.82 106.574L668.375 107.406ZM670.156 105.719L671.014 106.233L671.024 106.216L671.034 106.198L670.156 105.719ZM670.156 101.875L669.248 102.294L669.255 102.308L669.262 102.322L670.156 101.875ZM668.375 99.9062L667.82 100.738L667.835 100.748L667.851 100.758L668.375 99.9062ZM665.469 99.0625L665.521 98.0639L665.495 98.0625H665.469V99.0625ZM638.844 99.0625L638.815 100.062L638.829 100.062H638.844V99.0625ZM627.969 96.0625L627.414 96.8946L627.422 96.9001L627.969 96.0625ZM621.875 89.6875L620.976 90.1255L620.983 90.1395L620.99 90.1532L621.875 89.6875ZM621.969 75.0625L622.854 75.5283L622.859 75.5188L621.969 75.0625ZM638.844 65.5938V64.5938H638.829L638.815 64.5942L638.844 65.5938ZM639.406 65.5938V66.5938H639.489L639.571 66.5801L639.406 65.5938ZM680.188 67.375L679.462 68.0638L679.48 68.0823L679.499 68.1L680.188 67.375ZM681.062 71.7812C681.062 73.2618 680.547 74.467 679.499 75.4625L680.876 76.9125C682.328 75.533 683.062 73.8007 683.062 71.7812H681.062ZM679.462 75.4987C678.467 76.5467 677.262 77.0625 675.781 77.0625V79.0625C677.801 79.0625 679.533 78.3283 680.913 76.8763L679.462 75.4987ZM675.781 77.0625H638.281V79.0625H675.781V77.0625ZM638.229 77.0639C636.915 77.133 635.743 77.4479 634.757 78.0546L635.805 79.7579C636.444 79.3646 637.273 79.117 638.334 79.0611L638.229 77.0639ZM634.777 78.0425C633.91 78.5486 633.213 79.1909 632.736 79.9855L634.451 81.0145C634.724 80.5591 635.153 80.1389 635.785 79.77L634.777 78.0425ZM632.762 79.9453C632.287 80.658 632.031 81.4426 632.031 82.2812H634.031C634.031 81.8699 634.151 81.467 634.426 81.0547L632.762 79.9453ZM632.031 82.2812C632.031 83.1158 632.284 83.9165 632.736 84.6707L634.451 83.6418C634.154 83.146 634.031 82.6967 634.031 82.2812H632.031ZM632.762 84.711C633.23 85.4133 633.901 86.0319 634.727 86.582L635.836 84.918C635.161 84.4681 634.708 84.0242 634.426 83.6015L632.762 84.711ZM634.807 86.6305C635.782 87.1552 636.935 87.4305 638.229 87.4986L638.334 85.5014C637.253 85.4445 636.406 85.2198 635.755 84.8695L634.807 86.6305ZM638.281 87.5H664.906V85.5H638.281V87.5ZM664.878 87.4996C669.114 87.6206 672.506 88.6161 675.12 90.4173L676.255 88.7702C673.244 86.6964 669.449 85.6294 664.935 85.5004L664.878 87.4996ZM675.141 90.4314C677.899 92.2298 679.787 94.2876 680.878 96.5853L682.685 95.7272C681.401 93.0249 679.226 90.7077 676.234 88.7561L675.141 90.4314ZM680.891 96.6126C682.074 98.9189 682.656 101.263 682.656 103.656H684.656C684.656 100.924 683.988 98.2686 682.671 95.6999L680.891 96.6126ZM682.656 103.656C682.656 105.983 682.076 108.331 680.887 110.709L682.676 111.603C683.987 108.981 684.656 106.329 684.656 103.656H682.656ZM680.891 110.7C679.733 112.958 677.83 115.029 675.12 116.895L676.255 118.542C679.17 116.534 681.329 114.229 682.671 111.613L680.891 110.7ZM675.133 116.887C672.527 118.624 669.141 119.531 664.906 119.531V121.531C669.421 121.531 673.223 120.563 676.242 118.551L675.133 116.887ZM664.906 119.531H664.344V121.531H664.906V119.531ZM664.179 119.545C663.858 119.598 663.538 119.625 663.219 119.625V121.625C663.65 121.625 664.08 121.589 664.508 121.518L664.179 119.545ZM663.219 119.625H627.781V121.625H663.219V119.625ZM627.781 119.625C626.283 119.625 625.031 119.127 623.97 118.119L622.592 119.569C624.031 120.936 625.779 121.625 627.781 121.625V119.625ZM624.006 118.155C622.998 117.094 622.5 115.842 622.5 114.344H620.5C620.5 116.346 621.189 118.094 622.556 119.533L624.006 118.155ZM622.5 114.344C622.5 112.863 623.016 111.658 624.064 110.662L622.686 109.213C621.234 110.592 620.5 112.324 620.5 114.344H622.5ZM624.1 110.626C625.096 109.578 626.301 109.062 627.781 109.062V107.062C625.762 107.062 624.029 107.797 622.65 109.249L624.1 110.626ZM627.781 109.062H665.469V107.062H627.781V109.062ZM665.416 109.061C666.75 109.131 667.951 108.891 668.93 108.238L667.82 106.574C667.299 106.922 666.562 107.119 665.521 107.064L665.416 109.061ZM668.899 108.258C669.807 107.699 670.535 107.032 671.014 106.233L669.299 105.204C669.028 105.656 668.568 106.114 667.851 106.555L668.899 108.258ZM671.034 106.198C671.478 105.384 671.719 104.533 671.719 103.656H669.719C669.719 104.154 669.585 104.679 669.278 105.24L671.034 106.198ZM671.719 103.656C671.719 102.978 671.443 102.212 671.051 101.428L669.262 102.322C669.62 103.038 669.719 103.459 669.719 103.656H671.719ZM671.064 101.456C670.601 100.453 669.868 99.6507 668.899 99.0546L667.851 100.758C668.507 101.162 668.961 101.672 669.248 102.294L671.064 101.456ZM668.93 99.0742C667.99 98.4477 666.832 98.1329 665.521 98.0639L665.416 100.061C666.48 100.117 667.26 100.365 667.82 100.738L668.93 99.0742ZM665.469 98.0625H638.844V100.062H665.469V98.0625ZM638.872 98.0629C634.632 97.9417 631.199 96.975 628.515 95.2249L627.422 96.9001C630.489 98.9 634.306 99.9333 638.815 100.062L638.872 98.0629ZM628.523 95.2305C625.815 93.4245 623.915 91.4155 622.76 89.2218L620.99 90.1532C622.335 92.7095 624.498 94.9505 627.414 96.8945L628.523 95.2305ZM622.774 89.2495C621.647 86.9367 621.094 84.6169 621.094 82.2812H619.094C619.094 84.9456 619.728 87.5633 620.976 90.1255L622.774 89.2495ZM621.094 82.2812C621.094 80.022 621.671 77.7744 622.854 75.5282L621.084 74.5968C619.766 77.1006 619.094 79.6655 619.094 82.2812H621.094ZM622.859 75.5188C624.015 73.2647 625.914 71.2281 628.617 69.4258L627.508 67.7617C624.586 69.7094 622.423 71.9853 621.079 74.6062L622.859 75.5188ZM628.617 69.4258C631.234 67.6815 634.631 66.7145 638.872 66.5933L638.815 64.5942C634.307 64.723 630.516 65.756 627.508 67.7617L628.617 69.4258ZM638.844 66.5938H639.406V64.5938H638.844V66.5938ZM639.571 66.5801C639.892 66.5266 640.212 66.5 640.531 66.5V64.5C640.1 64.5 639.67 64.5359 639.242 64.6074L639.571 66.5801ZM640.531 66.5H675.781V64.5H640.531V66.5ZM675.781 66.5C677.262 66.5 678.467 67.0158 679.462 68.0638L680.913 66.6862C679.533 65.2342 677.801 64.5 675.781 64.5V66.5ZM679.499 68.1C680.547 69.0955 681.062 70.3007 681.062 71.7812H683.062C683.062 69.7618 682.328 68.0295 680.876 66.65L679.499 68.1Z" fill="url(#paint3_linear_2_3)" mask="url(#path-3-outside-2_2_3)"/>
</g>
<defs>
<filter id="filter0_d_2_3" x="76.6171" y="50.936" width="307.94" height="82.928" filterUnits="userSpaceOnUse" color-interpolation-filters="sRGB">
<feFlood flood-opacity="0" result="BackgroundImageFix"/>
<feColorMatrix in="SourceAlpha" type="matrix" values="0 0 0 0 0 0 0 0 0 0 0 0 0 0 0 0 0 0 127 0" result="hardAlpha"/>
<feOffset dx="6" dy="8"/>
<feGaussianBlur stdDeviation="2"/>
<feComposite in2="hardAlpha" operator="out"/>
<feColorMatrix type="matrix" values="0 0 0 0 0 0 0 0 0 0 0 0 0 0 0 0 0 0 0.25 0"/>
<feBlend mode="normal" in2="BackgroundImageFix" result="effect1_dropShadow_2_3"/>
<feBlend mode="normal" in="SourceGraphic" in2="effect1_dropShadow_2_3" result="shape"/>
</filter>
<filter id="filter1_d_2_3" x="403.75" y="64.5" width="290.906" height="69.3125" filterUnits="userSpaceOnUse" color-interpolation-filters="sRGB">
<feFlood flood-opacity="0" result="BackgroundImageFix"/>
<feColorMatrix in="SourceAlpha" type="matrix" values="0 0 0 0 0 0 0 0 0 0 0 0 0 0 0 0 0 0 127 0" result="hardAlpha"/>
<feOffset dx="6" dy="8"/>
<feGaussianBlur stdDeviation="2"/>
<feComposite in2="hardAlpha" operator="out"/>
<feColorMatrix type="matrix" values="0 0 0 0 0 0 0 0 0 0 0 0 0 0 0 0 0 0 0.25 0"/>
<feBlend mode="normal" in2="BackgroundImageFix" result="effect1_dropShadow_2_3"/>
<feBlend mode="normal" in="SourceGraphic" in2="effect1_dropShadow_2_3" result="shape"/>
</filter>
<linearGradient id="paint0_linear_2_3" x1="226.5" y1="44" x2="226.5" y2="137" gradientUnits="userSpaceOnUse">
<stop stop-color="#38BFE2"/>
<stop offset="0.5" stop-color="#025370"/>
<stop offset="1" stop-color="#003350"/>
</linearGradient>
<linearGradient id="paint1_linear_2_3" x1="226.5" y1="0" x2="226.5" y2="163" gradientUnits="userSpaceOnUse">
<stop stop-color="#38BFE2"/>
<stop offset="1" stop-color="#025370"/>
</linearGradient>
<linearGradient id="paint2_linear_2_3" x1="544" y1="49.5" x2="544" y2="151.5" gradientUnits="userSpaceOnUse">
<stop stop-color="#38BFE2"/>
<stop offset="0.5" stop-color="#025370"/>
<stop offset="1" stop-color="#003350"/>
</linearGradient>
<linearGradient id="paint3_linear_2_3" x1="543.5" y1="10" x2="543.5" y2="163" gradientUnits="userSpaceOnUse">
<stop stop-color="#38BFE2"/>
<stop offset="1" stop-color="#025370"/>
</linearGradient>
</defs>
</svg>
