<svg width="641" height="104" viewBox="0 0 641 104" fill="none" xmlns="http://www.w3.org/2000/svg">
<g filter="url(#filter0_d_14_4)">
<mask id="path-1-outside-1_14_4" maskUnits="userSpaceOnUse" x="0" y="0" width="631" height="92" fill="black">
<rect fill="white" width="631" height="92"/>
<path d="M31.743 70.864C28.671 70.864 26.591 69.456 25.503 66.64L1.023 3.184C1.663 2.864 2.527 2.576 3.615 2.32C4.703 2.064 5.663 1.936 6.495 1.936C11.551 1.936 14.815 3.984 16.287 8.08L31.071 49.456L28.767 55.6L29.823 55.984L47.103 8.08C48.639 3.984 51.903 1.936 56.895 1.936C57.727 1.936 58.687 2.064 59.775 2.32C60.863 2.576 61.759 2.864 62.463 3.184L37.983 66.64C37.471 67.984 36.671 69.04 35.583 69.808C34.559 70.512 33.279 70.864 31.743 70.864ZM71.6565 90.064C69.1605 90.064 67.1765 89.2 65.7045 87.472C64.2965 85.744 63.5925 83.248 63.5925 79.984C65.5125 80.304 67.1125 80.464 68.3925 80.464C70.8245 80.464 72.7445 79.824 74.1525 78.544C75.6245 77.264 77.2245 74.704 78.9525 70.864L80.4885 67.312L61.9605 22.096C62.4085 21.84 63.1765 21.616 64.2645 21.424C65.4165 21.232 66.3445 21.136 67.0485 21.136C68.9045 21.136 70.6005 21.552 72.1365 22.384C73.6725 23.152 74.7285 24.24 75.3045 25.648L85.5765 52.624L83.9445 57.136L84.8085 57.424L97.1925 25.648C97.7685 24.176 98.7925 23.056 100.265 22.288C101.801 21.52 103.497 21.136 105.353 21.136C106.057 21.136 106.953 21.232 108.041 21.424C109.193 21.616 110.025 21.84 110.537 22.096L89.0325 74.32C86.7925 79.696 84.3285 83.664 81.6405 86.224C79.0165 88.784 75.6885 90.064 71.6565 90.064ZM129.413 70.864C126.149 70.864 123.141 70.224 120.389 68.944C117.701 67.664 115.525 65.84 113.861 63.472C112.261 61.04 111.461 58.16 111.461 54.832C111.461 51.504 112.325 48.624 114.053 46.192C115.781 43.696 118.117 41.808 121.061 40.528C124.069 39.184 127.365 38.512 130.949 38.512C133.893 38.512 136.517 38.992 138.821 39.952C141.189 40.848 143.365 42.224 145.349 44.08L145.829 43.6C145.253 43.024 144.261 42.16 142.853 41.008V39.088C142.853 36.464 141.925 34.384 140.069 32.848C138.213 31.312 135.621 30.544 132.293 30.544C126.341 30.544 121.957 32.72 119.141 37.072C117.733 36.624 116.549 35.92 115.589 34.96C114.628 33.936 114.148 32.848 114.148 31.696C114.148 29.776 115.013 28.016 116.741 26.416C118.469 24.816 120.805 23.536 123.749 22.576C126.693 21.616 129.893 21.136 133.349 21.136C140.133 21.136 145.381 22.736 149.093 25.936C152.805 29.072 154.661 33.36 154.661 38.8V62.8C154.661 65.616 153.765 67.664 151.973 68.944C150.181 70.224 147.365 70.864 143.525 70.864V66.928C144.613 65.84 145.349 65.04 145.733 64.528L145.349 64.048C143.237 66.288 140.965 67.984 138.533 69.136C136.165 70.288 133.125 70.864 129.413 70.864ZM132.484 62.128C135.813 62.128 138.405 61.488 140.261 60.208C142.117 58.928 143.045 57.104 143.045 54.736C143.045 52.432 142.085 50.608 140.165 49.264C138.309 47.92 135.781 47.248 132.581 47.248C129.637 47.248 127.301 47.92 125.573 49.264C123.909 50.544 123.077 52.368 123.077 54.736C123.077 57.168 123.909 59.024 125.573 60.304C127.237 61.52 129.541 62.128 132.484 62.128ZM165.414 29.392C165.414 27.024 166.342 25.072 168.198 23.536C170.054 21.936 172.806 21.136 176.454 21.136V26.32C175.366 27.792 174.758 28.656 174.63 28.912L175.014 29.296C177.062 26.608 179.302 24.592 181.734 23.248C184.23 21.84 187.302 21.136 190.95 21.136C194.47 21.136 197.574 21.872 200.262 23.344C203.014 24.752 205.158 26.768 206.694 29.392C208.23 32.016 208.998 35.024 208.998 38.416V53.584C208.998 57.04 208.134 60.08 206.406 62.704C204.742 65.328 202.438 67.344 199.494 68.752C196.55 70.16 193.222 70.864 189.51 70.864C187.142 70.864 184.678 70.384 182.118 69.424C179.622 68.4 177.51 67.024 175.782 65.296L175.398 65.776C175.846 66.416 176.55 67.088 177.51 67.792V82C177.51 87.376 173.478 90.064 165.414 90.064V29.392ZM187.206 60.496C190.342 60.496 192.774 59.824 194.502 58.48C196.23 57.136 197.094 55.248 197.094 52.816V39.184C197.094 36.688 196.23 34.8 194.502 33.52C192.838 32.176 190.406 31.504 187.206 31.504C184.326 31.504 181.958 32.208 180.102 33.616C178.246 34.96 177.318 36.656 177.318 38.704V53.296C177.318 55.28 178.214 56.976 180.006 58.384C181.862 59.792 184.262 60.496 187.206 60.496ZM234.506 70.864C231.242 70.864 228.234 70.224 225.482 68.944C222.794 67.664 220.618 65.84 218.954 63.472C217.354 61.04 216.554 58.16 216.554 54.832C216.554 51.504 217.418 48.624 219.146 46.192C220.874 43.696 223.21 41.808 226.154 40.528C229.162 39.184 232.458 38.512 236.042 38.512C238.986 38.512 241.61 38.992 243.914 39.952C246.282 40.848 248.458 42.224 250.442 44.08L250.922 43.6C250.346 43.024 249.354 42.16 247.946 41.008V39.088C247.946 36.464 247.018 34.384 245.162 32.848C243.306 31.312 240.714 30.544 237.386 30.544C231.434 30.544 227.05 32.72 224.234 37.072C222.826 36.624 221.642 35.92 220.682 34.96C219.722 33.936 219.242 32.848 219.242 31.696C219.242 29.776 220.106 28.016 221.834 26.416C223.562 24.816 225.898 23.536 228.842 22.576C231.786 21.616 234.986 21.136 238.442 21.136C245.226 21.136 250.474 22.736 254.186 25.936C257.898 29.072 259.754 33.36 259.754 38.8V62.8C259.754 65.616 258.858 67.664 257.066 68.944C255.274 70.224 252.458 70.864 248.618 70.864V66.928C249.706 65.84 250.442 65.04 250.826 64.528L250.442 64.048C248.33 66.288 246.058 67.984 243.626 69.136C241.258 70.288 238.218 70.864 234.506 70.864ZM237.578 62.128C240.906 62.128 243.498 61.488 245.354 60.208C247.21 58.928 248.138 57.104 248.138 54.736C248.138 52.432 247.178 50.608 245.258 49.264C243.402 47.92 240.874 47.248 237.674 47.248C234.73 47.248 232.394 47.92 230.666 49.264C229.002 50.544 228.17 52.368 228.17 54.736C228.17 57.168 229.002 59.024 230.666 60.304C232.33 61.52 234.634 62.128 237.578 62.128ZM295.18 31.504C291.404 31.504 288.332 32.528 285.964 34.576C283.596 36.56 282.412 39.056 282.412 42.064V63.568C282.412 66.128 281.452 67.984 279.532 69.136C277.612 70.288 274.604 70.864 270.508 70.864V30.352C270.508 27.408 271.436 25.136 273.292 23.536C275.212 21.936 278.092 21.136 281.932 21.136V26.8C280.972 27.888 280.204 28.944 279.628 29.968L280.204 30.352C284.236 24.208 289.292 21.136 295.372 21.136C298.124 21.136 300.204 21.872 301.612 23.344C303.02 24.752 303.724 26.544 303.724 28.72C303.724 30.384 303.276 31.792 302.38 32.944C300.652 31.984 298.252 31.504 295.18 31.504ZM343.127 70C341.335 70 339.799 69.456 338.519 68.368C337.303 67.216 336.695 65.808 336.695 64.144V8.65599C336.695 6.992 337.303 5.616 338.519 4.528C339.735 3.376 341.271 2.8 343.127 2.8H364.439C370.135 2.8 375.159 3.888 379.511 6.064C383.927 8.24 387.319 11.312 389.687 15.28C392.119 19.184 393.335 23.664 393.335 28.72V43.888C393.335 48.944 392.119 53.456 389.687 57.424C387.255 61.392 383.831 64.496 379.415 66.736C375.063 68.912 370.071 70 364.439 70H343.127ZM363.479 58.96C369.047 58.96 373.271 57.712 376.151 55.216C379.031 52.656 380.471 48.912 380.471 43.984V28.528C380.471 23.728 379.031 20.08 376.151 17.584C373.271 15.088 369.047 13.84 363.479 13.84H349.559V58.96H363.479ZM427.649 31.504C423.873 31.504 420.801 32.528 418.433 34.576C416.065 36.56 414.881 39.056 414.881 42.064V63.568C414.881 66.128 413.921 67.984 412.001 69.136C410.081 70.288 407.073 70.864 402.977 70.864V30.352C402.977 27.408 403.905 25.136 405.761 23.536C407.681 21.936 410.561 21.136 414.401 21.136V26.8C413.441 27.888 412.673 28.944 412.097 29.968L412.673 30.352C416.705 24.208 421.761 21.136 427.841 21.136C430.593 21.136 432.673 21.872 434.081 23.344C435.489 24.752 436.193 26.544 436.193 28.72C436.193 30.384 435.745 31.792 434.849 32.944C433.121 31.984 430.721 31.504 427.649 31.504ZM449.945 16.624C447.641 16.624 445.721 15.952 444.185 14.608C442.713 13.2 441.977 11.408 441.977 9.232C441.977 7.12 442.713 5.392 444.185 4.048C445.721 2.64 447.641 1.936 449.945 1.936C452.249 1.936 454.137 2.64 455.609 4.048C457.145 5.392 457.913 7.12 457.913 9.232C457.913 11.408 457.145 13.2 455.609 14.608C454.137 15.952 452.249 16.624 449.945 16.624ZM443.897 28.432C443.897 25.808 444.889 23.952 446.873 22.864C448.857 21.712 451.865 21.136 455.897 21.136V63.568C455.897 66.128 454.905 67.984 452.921 69.136C450.937 70.288 447.929 70.864 443.897 70.864V28.432ZM488.746 70.864C482.602 70.864 477.642 69.776 473.866 67.6C470.154 65.36 468.266 62.384 468.202 58.672C468.202 57.072 468.842 55.728 470.122 54.64C471.466 53.552 473.578 52.976 476.458 52.912C477.034 55.728 478.378 57.904 480.49 59.44C482.602 60.912 485.162 61.648 488.17 61.648C491.434 61.648 493.994 61.232 495.85 60.4C497.706 59.568 498.634 58.32 498.634 56.656C498.634 55.12 497.866 53.84 496.33 52.816C494.858 51.792 491.914 50.768 487.498 49.744C482.698 48.592 478.954 47.44 476.266 46.288C473.642 45.136 471.69 43.664 470.41 41.872C469.13 40.08 468.49 37.712 468.49 34.768C468.49 30.672 470.218 27.376 473.674 24.88C477.13 22.384 481.866 21.136 487.882 21.136C493.706 21.136 498.538 22.192 502.378 24.304C506.218 26.352 508.138 29.104 508.138 32.56C508.138 34.288 507.498 35.568 506.218 36.4C504.938 37.232 502.826 37.68 499.882 37.744C499.242 35.184 498.026 33.264 496.234 31.984C494.442 30.704 491.914 30.064 488.65 30.064C486.218 30.064 484.106 30.48 482.314 31.312C480.586 32.144 479.722 33.232 479.722 34.576C479.722 35.984 480.458 37.072 481.93 37.84C483.402 38.608 485.962 39.376 489.61 40.144C496.778 41.68 501.962 43.728 505.162 46.288C508.426 48.848 510.058 52.336 510.058 56.752C510.058 61.04 508.138 64.464 504.298 67.024C500.522 69.584 495.338 70.864 488.746 70.864ZM518.664 11.152C518.664 8.208 519.688 5.936 521.736 4.336C523.784 2.736 526.728 1.936 530.568 1.936V26.896C529.736 27.792 528.968 28.816 528.264 29.968L528.84 30.352C533.256 24.208 538.888 21.136 545.736 21.136C549 21.136 551.88 21.872 554.376 23.344C556.872 24.816 558.792 26.832 560.136 29.392C561.544 31.952 562.248 34.832 562.248 38.032V63.568C562.248 66.128 561.256 67.984 559.272 69.136C557.288 70.288 554.28 70.864 550.248 70.864V39.76C550.248 37.328 549.512 35.344 548.04 33.808C546.632 32.272 544.552 31.504 541.8 31.504C538.536 31.504 535.848 32.528 533.736 34.576C531.624 36.56 530.568 39.056 530.568 42.064V63.568C530.568 66.128 529.576 67.984 527.592 69.136C525.608 70.288 522.632 70.864 518.664 70.864V11.152ZM593.637 70.864C588.453 70.864 584.613 69.36 582.117 66.352C579.621 63.344 578.373 59.472 578.373 54.736V30.928H568.485C568.485 27.92 569.061 25.68 570.213 24.208C571.365 22.736 572.901 22 574.821 22H578.565V14.032C578.565 11.408 579.525 9.552 581.445 8.464C583.365 7.312 586.277 6.736 590.181 6.736V22H602.949C602.949 25.2 602.341 27.504 601.125 28.912C599.909 30.256 597.957 30.928 595.269 30.928H590.373V54.256C590.373 56.496 590.789 58.096 591.621 59.056C592.517 60.016 594.021 60.496 596.133 60.496C598.373 60.496 600.613 59.888 602.853 58.672C603.493 59.248 604.005 59.984 604.389 60.88C604.773 61.712 604.965 62.576 604.965 63.472C604.965 65.392 603.973 67.12 601.989 68.656C600.005 70.128 597.221 70.864 593.637 70.864ZM621.976 16.624C619.672 16.624 617.752 15.952 616.216 14.608C614.744 13.2 614.008 11.408 614.008 9.232C614.008 7.12 614.744 5.392 616.216 4.048C617.752 2.64 619.672 1.936 621.976 1.936C624.28 1.936 626.168 2.64 627.64 4.048C629.176 5.392 629.944 7.12 629.944 9.232C629.944 11.408 629.176 13.2 627.64 14.608C626.168 15.952 624.28 16.624 621.976 16.624ZM615.928 28.432C615.928 25.808 616.92 23.952 618.904 22.864C620.888 21.712 623.896 21.136 627.928 21.136V63.568C627.928 66.128 626.936 67.984 624.952 69.136C622.968 70.288 619.96 70.864 615.928 70.864V28.432Z"/>
</mask>
<path d="M31.743 70.864C28.671 70.864 26.591 69.456 25.503 66.64L1.023 3.184C1.663 2.864 2.527 2.576 3.615 2.32C4.703 2.064 5.663 1.936 6.495 1.936C11.551 1.936 14.815 3.984 16.287 8.08L31.071 49.456L28.767 55.6L29.823 55.984L47.103 8.08C48.639 3.984 51.903 1.936 56.895 1.936C57.727 1.936 58.687 2.064 59.775 2.32C60.863 2.576 61.759 2.864 62.463 3.184L37.983 66.64C37.471 67.984 36.671 69.04 35.583 69.808C34.559 70.512 33.279 70.864 31.743 70.864ZM71.6565 90.064C69.1605 90.064 67.1765 89.2 65.7045 87.472C64.2965 85.744 63.5925 83.248 63.5925 79.984C65.5125 80.304 67.1125 80.464 68.3925 80.464C70.8245 80.464 72.7445 79.824 74.1525 78.544C75.6245 77.264 77.2245 74.704 78.9525 70.864L80.4885 67.312L61.9605 22.096C62.4085 21.84 63.1765 21.616 64.2645 21.424C65.4165 21.232 66.3445 21.136 67.0485 21.136C68.9045 21.136 70.6005 21.552 72.1365 22.384C73.6725 23.152 74.7285 24.24 75.3045 25.648L85.5765 52.624L83.9445 57.136L84.8085 57.424L97.1925 25.648C97.7685 24.176 98.7925 23.056 100.265 22.288C101.801 21.52 103.497 21.136 105.353 21.136C106.057 21.136 106.953 21.232 108.041 21.424C109.193 21.616 110.025 21.84 110.537 22.096L89.0325 74.32C86.7925 79.696 84.3285 83.664 81.6405 86.224C79.0165 88.784 75.6885 90.064 71.6565 90.064ZM129.413 70.864C126.149 70.864 123.141 70.224 120.389 68.944C117.701 67.664 115.525 65.84 113.861 63.472C112.261 61.04 111.461 58.16 111.461 54.832C111.461 51.504 112.325 48.624 114.053 46.192C115.781 43.696 118.117 41.808 121.061 40.528C124.069 39.184 127.365 38.512 130.949 38.512C133.893 38.512 136.517 38.992 138.821 39.952C141.189 40.848 143.365 42.224 145.349 44.08L145.829 43.6C145.253 43.024 144.261 42.16 142.853 41.008V39.088C142.853 36.464 141.925 34.384 140.069 32.848C138.213 31.312 135.621 30.544 132.293 30.544C126.341 30.544 121.957 32.72 119.141 37.072C117.733 36.624 116.549 35.92 115.589 34.96C114.628 33.936 114.148 32.848 114.148 31.696C114.148 29.776 115.013 28.016 116.741 26.416C118.469 24.816 120.805 23.536 123.749 22.576C126.693 21.616 129.893 21.136 133.349 21.136C140.133 21.136 145.381 22.736 149.093 25.936C152.805 29.072 154.661 33.36 154.661 38.8V62.8C154.661 65.616 153.765 67.664 151.973 68.944C150.181 70.224 147.365 70.864 143.525 70.864V66.928C144.613 65.84 145.349 65.04 145.733 64.528L145.349 64.048C143.237 66.288 140.965 67.984 138.533 69.136C136.165 70.288 133.125 70.864 129.413 70.864ZM132.484 62.128C135.813 62.128 138.405 61.488 140.261 60.208C142.117 58.928 143.045 57.104 143.045 54.736C143.045 52.432 142.085 50.608 140.165 49.264C138.309 47.92 135.781 47.248 132.581 47.248C129.637 47.248 127.301 47.92 125.573 49.264C123.909 50.544 123.077 52.368 123.077 54.736C123.077 57.168 123.909 59.024 125.573 60.304C127.237 61.52 129.541 62.128 132.484 62.128ZM165.414 29.392C165.414 27.024 166.342 25.072 168.198 23.536C170.054 21.936 172.806 21.136 176.454 21.136V26.32C175.366 27.792 174.758 28.656 174.63 28.912L175.014 29.296C177.062 26.608 179.302 24.592 181.734 23.248C184.23 21.84 187.302 21.136 190.95 21.136C194.47 21.136 197.574 21.872 200.262 23.344C203.014 24.752 205.158 26.768 206.694 29.392C208.23 32.016 208.998 35.024 208.998 38.416V53.584C208.998 57.04 208.134 60.08 206.406 62.704C204.742 65.328 202.438 67.344 199.494 68.752C196.55 70.16 193.222 70.864 189.51 70.864C187.142 70.864 184.678 70.384 182.118 69.424C179.622 68.4 177.51 67.024 175.782 65.296L175.398 65.776C175.846 66.416 176.55 67.088 177.51 67.792V82C177.51 87.376 173.478 90.064 165.414 90.064V29.392ZM187.206 60.496C190.342 60.496 192.774 59.824 194.502 58.48C196.23 57.136 197.094 55.248 197.094 52.816V39.184C197.094 36.688 196.23 34.8 194.502 33.52C192.838 32.176 190.406 31.504 187.206 31.504C184.326 31.504 181.958 32.208 180.102 33.616C178.246 34.96 177.318 36.656 177.318 38.704V53.296C177.318 55.28 178.214 56.976 180.006 58.384C181.862 59.792 184.262 60.496 187.206 60.496ZM234.506 70.864C231.242 70.864 228.234 70.224 225.482 68.944C222.794 67.664 220.618 65.84 218.954 63.472C217.354 61.04 216.554 58.16 216.554 54.832C216.554 51.504 217.418 48.624 219.146 46.192C220.874 43.696 223.21 41.808 226.154 40.528C229.162 39.184 232.458 38.512 236.042 38.512C238.986 38.512 241.61 38.992 243.914 39.952C246.282 40.848 248.458 42.224 250.442 44.08L250.922 43.6C250.346 43.024 249.354 42.16 247.946 41.008V39.088C247.946 36.464 247.018 34.384 245.162 32.848C243.306 31.312 240.714 30.544 237.386 30.544C231.434 30.544 227.05 32.72 224.234 37.072C222.826 36.624 221.642 35.92 220.682 34.96C219.722 33.936 219.242 32.848 219.242 31.696C219.242 29.776 220.106 28.016 221.834 26.416C223.562 24.816 225.898 23.536 228.842 22.576C231.786 21.616 234.986 21.136 238.442 21.136C245.226 21.136 250.474 22.736 254.186 25.936C257.898 29.072 259.754 33.36 259.754 38.8V62.8C259.754 65.616 258.858 67.664 257.066 68.944C255.274 70.224 252.458 70.864 248.618 70.864V66.928C249.706 65.84 250.442 65.04 250.826 64.528L250.442 64.048C248.33 66.288 246.058 67.984 243.626 69.136C241.258 70.288 238.218 70.864 234.506 70.864ZM237.578 62.128C240.906 62.128 243.498 61.488 245.354 60.208C247.21 58.928 248.138 57.104 248.138 54.736C248.138 52.432 247.178 50.608 245.258 49.264C243.402 47.92 240.874 47.248 237.674 47.248C234.73 47.248 232.394 47.92 230.666 49.264C229.002 50.544 228.17 52.368 228.17 54.736C228.17 57.168 229.002 59.024 230.666 60.304C232.33 61.52 234.634 62.128 237.578 62.128ZM295.18 31.504C291.404 31.504 288.332 32.528 285.964 34.576C283.596 36.56 282.412 39.056 282.412 42.064V63.568C282.412 66.128 281.452 67.984 279.532 69.136C277.612 70.288 274.604 70.864 270.508 70.864V30.352C270.508 27.408 271.436 25.136 273.292 23.536C275.212 21.936 278.092 21.136 281.932 21.136V26.8C280.972 27.888 280.204 28.944 279.628 29.968L280.204 30.352C284.236 24.208 289.292 21.136 295.372 21.136C298.124 21.136 300.204 21.872 301.612 23.344C303.02 24.752 303.724 26.544 303.724 28.72C303.724 30.384 303.276 31.792 302.38 32.944C300.652 31.984 298.252 31.504 295.18 31.504ZM343.127 70C341.335 70 339.799 69.456 338.519 68.368C337.303 67.216 336.695 65.808 336.695 64.144V8.65599C336.695 6.992 337.303 5.616 338.519 4.528C339.735 3.376 341.271 2.8 343.127 2.8H364.439C370.135 2.8 375.159 3.888 379.511 6.064C383.927 8.24 387.319 11.312 389.687 15.28C392.119 19.184 393.335 23.664 393.335 28.72V43.888C393.335 48.944 392.119 53.456 389.687 57.424C387.255 61.392 383.831 64.496 379.415 66.736C375.063 68.912 370.071 70 364.439 70H343.127ZM363.479 58.96C369.047 58.96 373.271 57.712 376.151 55.216C379.031 52.656 380.471 48.912 380.471 43.984V28.528C380.471 23.728 379.031 20.08 376.151 17.584C373.271 15.088 369.047 13.84 363.479 13.84H349.559V58.96H363.479ZM427.649 31.504C423.873 31.504 420.801 32.528 418.433 34.576C416.065 36.56 414.881 39.056 414.881 42.064V63.568C414.881 66.128 413.921 67.984 412.001 69.136C410.081 70.288 407.073 70.864 402.977 70.864V30.352C402.977 27.408 403.905 25.136 405.761 23.536C407.681 21.936 410.561 21.136 414.401 21.136V26.8C413.441 27.888 412.673 28.944 412.097 29.968L412.673 30.352C416.705 24.208 421.761 21.136 427.841 21.136C430.593 21.136 432.673 21.872 434.081 23.344C435.489 24.752 436.193 26.544 436.193 28.72C436.193 30.384 435.745 31.792 434.849 32.944C433.121 31.984 430.721 31.504 427.649 31.504ZM449.945 16.624C447.641 16.624 445.721 15.952 444.185 14.608C442.713 13.2 441.977 11.408 441.977 9.232C441.977 7.12 442.713 5.392 444.185 4.048C445.721 2.64 447.641 1.936 449.945 1.936C452.249 1.936 454.137 2.64 455.609 4.048C457.145 5.392 457.913 7.12 457.913 9.232C457.913 11.408 457.145 13.2 455.609 14.608C454.137 15.952 452.249 16.624 449.945 16.624ZM443.897 28.432C443.897 25.808 444.889 23.952 446.873 22.864C448.857 21.712 451.865 21.136 455.897 21.136V63.568C455.897 66.128 454.905 67.984 452.921 69.136C450.937 70.288 447.929 70.864 443.897 70.864V28.432ZM488.746 70.864C482.602 70.864 477.642 69.776 473.866 67.6C470.154 65.36 468.266 62.384 468.202 58.672C468.202 57.072 468.842 55.728 470.122 54.64C471.466 53.552 473.578 52.976 476.458 52.912C477.034 55.728 478.378 57.904 480.49 59.44C482.602 60.912 485.162 61.648 488.17 61.648C491.434 61.648 493.994 61.232 495.85 60.4C497.706 59.568 498.634 58.32 498.634 56.656C498.634 55.12 497.866 53.84 496.33 52.816C494.858 51.792 491.914 50.768 487.498 49.744C482.698 48.592 478.954 47.44 476.266 46.288C473.642 45.136 471.69 43.664 470.41 41.872C469.13 40.08 468.49 37.712 468.49 34.768C468.49 30.672 470.218 27.376 473.674 24.88C477.13 22.384 481.866 21.136 487.882 21.136C493.706 21.136 498.538 22.192 502.378 24.304C506.218 26.352 508.138 29.104 508.138 32.56C508.138 34.288 507.498 35.568 506.218 36.4C504.938 37.232 502.826 37.68 499.882 37.744C499.242 35.184 498.026 33.264 496.234 31.984C494.442 30.704 491.914 30.064 488.65 30.064C486.218 30.064 484.106 30.48 482.314 31.312C480.586 32.144 479.722 33.232 479.722 34.576C479.722 35.984 480.458 37.072 481.93 37.84C483.402 38.608 485.962 39.376 489.61 40.144C496.778 41.68 501.962 43.728 505.162 46.288C508.426 48.848 510.058 52.336 510.058 56.752C510.058 61.04 508.138 64.464 504.298 67.024C500.522 69.584 495.338 70.864 488.746 70.864ZM518.664 11.152C518.664 8.208 519.688 5.936 521.736 4.336C523.784 2.736 526.728 1.936 530.568 1.936V26.896C529.736 27.792 528.968 28.816 528.264 29.968L528.84 30.352C533.256 24.208 538.888 21.136 545.736 21.136C549 21.136 551.88 21.872 554.376 23.344C556.872 24.816 558.792 26.832 560.136 29.392C561.544 31.952 562.248 34.832 562.248 38.032V63.568C562.248 66.128 561.256 67.984 559.272 69.136C557.288 70.288 554.28 70.864 550.248 70.864V39.76C550.248 37.328 549.512 35.344 548.04 33.808C546.632 32.272 544.552 31.504 541.8 31.504C538.536 31.504 535.848 32.528 533.736 34.576C531.624 36.56 530.568 39.056 530.568 42.064V63.568C530.568 66.128 529.576 67.984 527.592 69.136C525.608 70.288 522.632 70.864 518.664 70.864V11.152ZM593.637 70.864C588.453 70.864 584.613 69.36 582.117 66.352C579.621 63.344 578.373 59.472 578.373 54.736V30.928H568.485C568.485 27.92 569.061 25.68 570.213 24.208C571.365 22.736 572.901 22 574.821 22H578.565V14.032C578.565 11.408 579.525 9.552 581.445 8.464C583.365 7.312 586.277 6.736 590.181 6.736V22H602.949C602.949 25.2 602.341 27.504 601.125 28.912C599.909 30.256 597.957 30.928 595.269 30.928H590.373V54.256C590.373 56.496 590.789 58.096 591.621 59.056C592.517 60.016 594.021 60.496 596.133 60.496C598.373 60.496 600.613 59.888 602.853 58.672C603.493 59.248 604.005 59.984 604.389 60.88C604.773 61.712 604.965 62.576 604.965 63.472C604.965 65.392 603.973 67.12 601.989 68.656C600.005 70.128 597.221 70.864 593.637 70.864ZM621.976 16.624C619.672 16.624 617.752 15.952 616.216 14.608C614.744 13.2 614.008 11.408 614.008 9.232C614.008 7.12 614.744 5.392 616.216 4.048C617.752 2.64 619.672 1.936 621.976 1.936C624.28 1.936 626.168 2.64 627.64 4.048C629.176 5.392 629.944 7.12 629.944 9.232C629.944 11.408 629.176 13.2 627.64 14.608C626.168 15.952 624.28 16.624 621.976 16.624ZM615.928 28.432C615.928 25.808 616.92 23.952 618.904 22.864C620.888 21.712 623.896 21.136 627.928 21.136V63.568C627.928 66.128 626.936 67.984 624.952 69.136C622.968 70.288 619.96 70.864 615.928 70.864V28.432Z" fill="url(#paint0_linear_14_4)"/>
<path d="M25.503 66.64L24.57 66.9999L24.5702 67.0004L25.503 66.64ZM1.023 3.184L0.575787 2.28957C0.114832 2.52005 -0.0954731 3.0631 0.0900189 3.54392L1.023 3.184ZM3.615 2.32L3.84404 3.29341L3.84404 3.29341L3.615 2.32ZM16.287 8.08L17.2287 7.74352L17.2281 7.7418L16.287 8.08ZM31.071 49.456L32.0073 49.8071C32.0903 49.5858 32.0922 49.3422 32.0127 49.1195L31.071 49.456ZM28.767 55.6L27.8307 55.2489C27.7369 55.4988 27.747 55.7759 27.8587 56.0183C27.9704 56.2608 28.1744 56.4486 28.4253 56.5398L28.767 55.6ZM29.823 55.984L29.4813 56.9238C29.7309 57.0146 30.0065 57.0023 30.2471 56.8896C30.4877 56.777 30.6735 56.5732 30.7637 56.3233L29.823 55.984ZM47.103 8.08L46.1666 7.72884L46.1623 7.74068L47.103 8.08ZM62.463 3.184L63.396 3.54392C63.5866 3.04982 63.3589 2.49278 62.8768 2.27363L62.463 3.184ZM37.983 66.64L37.05 66.2801L37.0485 66.284L37.983 66.64ZM35.583 69.808L36.1496 70.6321L36.1597 70.625L35.583 69.808ZM31.743 70.864V69.864C30.3618 69.864 29.2803 69.549 28.4396 68.9799C27.6001 68.4116 26.9214 67.5365 26.4358 66.2796L25.503 66.64L24.5702 67.0004C25.1726 68.5595 26.0779 69.7964 27.3184 70.6361C28.5577 71.475 30.0522 71.864 31.743 71.864V70.864ZM25.503 66.64L26.436 66.2801L1.95598 2.82407L1.023 3.184L0.0900189 3.54392L24.57 66.9999L25.503 66.64ZM1.023 3.184L1.47021 4.07842C2.01342 3.80682 2.79444 3.54038 3.84404 3.29341L3.615 2.32L3.38596 1.34658C2.25956 1.61161 1.31258 1.92117 0.575787 2.28957L1.023 3.184ZM3.615 2.32L3.84404 3.29341C4.88082 3.04946 5.76127 2.936 6.495 2.936V1.936V0.935995C5.56473 0.935995 4.52518 1.07853 3.38596 1.34658L3.615 2.32ZM6.495 1.936V2.936C8.89247 2.936 10.7733 3.42168 12.2035 4.31906C13.6215 5.20879 14.6753 6.55213 15.3459 8.41819L16.287 8.08L17.2281 7.7418C16.4267 5.51186 15.1125 3.7832 13.2665 2.62493C11.4327 1.47431 9.15353 0.935995 6.495 0.935995V1.936ZM16.287 8.08L15.3453 8.41647L30.1293 49.7925L31.071 49.456L32.0127 49.1195L17.2287 7.74352L16.287 8.08ZM31.071 49.456L30.1347 49.1049L27.8307 55.2489L28.767 55.6L29.7033 55.9511L32.0073 49.8071L31.071 49.456ZM28.767 55.6L28.4253 56.5398L29.4813 56.9238L29.823 55.984L30.1647 55.0442L29.1087 54.6602L28.767 55.6ZM29.823 55.984L30.7637 56.3233L48.0437 8.41932L47.103 8.08L46.1623 7.74068L28.8823 55.6447L29.823 55.984ZM47.103 8.08L48.0393 8.43112C48.7413 6.55924 49.8128 5.21108 51.2345 4.31906C52.6665 3.42053 54.5324 2.936 56.895 2.936V1.936V0.935995C54.2656 0.935995 52.0035 1.47546 50.1715 2.62493C48.3292 3.78092 47.0007 5.50475 46.1667 7.72887L47.103 8.08ZM56.895 1.936V2.936C57.6287 2.936 58.5092 3.04946 59.546 3.29341L59.775 2.32L60.004 1.34658C58.8648 1.07853 57.8253 0.935995 56.895 0.935995V1.936ZM59.775 2.32L59.546 3.29341C60.5959 3.54045 61.4244 3.81036 62.0492 4.09436L62.463 3.184L62.8768 2.27363C62.0936 1.91764 61.1301 1.61154 60.004 1.34658L59.775 2.32ZM62.463 3.184L61.53 2.82407L37.05 66.2801L37.983 66.64L38.916 66.9999L63.396 3.54392L62.463 3.184ZM37.983 66.64L37.0485 66.284C36.6014 67.4578 35.9188 68.3469 35.0063 68.991L35.583 69.808L36.1597 70.625C37.4232 69.7331 38.3406 68.5102 38.9175 66.996L37.983 66.64ZM35.583 69.808L35.0165 68.984C34.1949 69.5488 33.1249 69.864 31.743 69.864V70.864V71.864C33.4331 71.864 34.9231 71.4752 36.1495 70.632L35.583 69.808ZM65.7045 87.472L64.9293 88.1037C64.9339 88.1093 64.9385 88.1149 64.9433 88.1205L65.7045 87.472ZM63.5925 79.984L63.7569 78.9976C63.4669 78.9493 63.1704 79.031 62.9461 79.221C62.7218 79.411 62.5925 79.69 62.5925 79.984H63.5925ZM74.1525 78.544L73.4963 77.7894C73.4908 77.7942 73.4853 77.7991 73.4798 77.8041L74.1525 78.544ZM78.9525 70.864L79.8644 71.2744C79.8664 71.2699 79.8684 71.2654 79.8704 71.2609L78.9525 70.864ZM80.4885 67.312L81.4064 67.7089C81.5132 67.4618 81.5159 67.182 81.4138 66.9328L80.4885 67.312ZM61.9605 22.096L61.4644 21.2278C61.0284 21.4769 60.8448 22.0106 61.0352 22.4752L61.9605 22.096ZM64.2645 21.424L64.1001 20.4376L64.0907 20.4392L64.2645 21.424ZM72.1365 22.384L71.6602 23.2633C71.6698 23.2685 71.6795 23.2735 71.6893 23.2784L72.1365 22.384ZM75.3045 25.648L76.239 25.2921C76.2361 25.2845 76.2331 25.2769 76.23 25.2694L75.3045 25.648ZM85.5765 52.624L86.5169 52.9641C86.5983 52.7389 86.5963 52.492 86.511 52.2681L85.5765 52.624ZM83.9445 57.136L83.0041 56.7959C82.9124 57.0494 82.927 57.3292 83.0445 57.5719C83.162 57.8145 83.3725 57.9994 83.6283 58.0847L83.9445 57.136ZM84.8085 57.424L84.4923 58.3727C84.9978 58.5412 85.5467 58.2837 85.7402 57.7871L84.8085 57.424ZM97.1925 25.648L96.2613 25.2836L96.2608 25.2849L97.1925 25.648ZM100.265 22.288L99.8173 21.3936C99.8121 21.3961 99.807 21.3988 99.8019 21.4014L100.265 22.288ZM108.041 21.424L107.867 22.4088L107.876 22.4104L108.041 21.424ZM110.537 22.096L111.461 22.4767C111.661 21.9922 111.452 21.4359 110.984 21.2016L110.537 22.096ZM89.0325 74.32L89.9556 74.7046L89.9572 74.7007L89.0325 74.32ZM81.6405 86.224L80.9508 85.4998L80.9422 85.5082L81.6405 86.224ZM71.6565 90.064V89.064C69.4206 89.064 67.7274 88.3046 66.4657 86.8235L65.7045 87.472L64.9433 88.1205C66.6256 90.0954 68.9004 91.064 71.6565 91.064V90.064ZM65.7045 87.472L66.4797 86.8403C65.2713 85.3572 64.5925 83.1214 64.5925 79.984H63.5925H62.5925C62.5925 83.3746 63.3217 86.1308 64.9293 88.1037L65.7045 87.472ZM63.5925 79.984L63.4281 80.9704C65.3775 81.2953 67.0369 81.464 68.3925 81.464V80.464V79.464C67.1881 79.464 65.6475 79.3127 63.7569 78.9976L63.5925 79.984ZM68.3925 80.464V81.464C71.0018 81.464 73.1863 80.7738 74.8252 79.2839L74.1525 78.544L73.4798 77.8041C72.3027 78.8742 70.6472 79.464 68.3925 79.464V80.464ZM74.1525 78.544L74.8087 79.2986C76.4574 77.865 78.1303 75.128 79.8644 71.2744L78.9525 70.864L78.0406 70.4536C76.3187 74.28 74.7916 76.663 73.4963 77.7894L74.1525 78.544ZM78.9525 70.864L79.8704 71.2609L81.4064 67.7089L80.4885 67.312L79.5706 66.9151L78.0346 70.4671L78.9525 70.864ZM80.4885 67.312L81.4138 66.9328L62.8858 21.7168L61.9605 22.096L61.0352 22.4752L79.5632 67.6912L80.4885 67.312ZM61.9605 22.096L62.4566 22.9642C62.744 22.8 63.3643 22.5983 64.4383 22.4088L64.2645 21.424L64.0907 20.4392C62.9887 20.6337 62.073 20.88 61.4644 21.2278L61.9605 22.096ZM64.2645 21.424L64.4289 22.4104C65.557 22.2224 66.4236 22.136 67.0485 22.136V21.136V20.136C66.2654 20.136 65.276 20.2416 64.1001 20.4376L64.2645 21.424ZM67.0485 21.136V22.136C68.7489 22.136 70.2796 22.5155 71.6602 23.2633L72.1365 22.384L72.6128 21.5047C70.9214 20.5885 69.0601 20.136 67.0485 20.136V21.136ZM72.1365 22.384L71.6893 23.2784C73.0385 23.953 73.9066 24.8719 74.379 26.0266L75.3045 25.648L76.23 25.2694C75.5504 23.6081 74.3065 22.351 72.5837 21.4896L72.1365 22.384ZM75.3045 25.648L74.37 26.0039L84.642 52.9799L85.5765 52.624L86.511 52.2681L76.239 25.2921L75.3045 25.648ZM85.5765 52.624L84.6361 52.2839L83.0041 56.7959L83.9445 57.136L84.8849 57.4761L86.5169 52.9641L85.5765 52.624ZM83.9445 57.136L83.6283 58.0847L84.4923 58.3727L84.8085 57.424L85.1247 56.4753L84.2607 56.1873L83.9445 57.136ZM84.8085 57.424L85.7402 57.7871L98.1242 26.0111L97.1925 25.648L96.2608 25.2849L83.8768 57.0609L84.8085 57.424ZM97.1925 25.648L98.1237 26.0124C98.607 24.7774 99.4575 23.837 100.727 23.1746L100.265 22.288L99.8019 21.4014C98.1275 22.275 96.93 23.5746 96.2613 25.2836L97.1925 25.648ZM100.265 22.288L100.712 23.1824C102.098 22.4894 103.639 22.136 105.353 22.136V21.136V20.136C103.354 20.136 101.503 20.5506 99.8173 21.3936L100.265 22.288ZM105.353 21.136V22.136C105.975 22.136 106.808 22.2219 107.867 22.4088L108.041 21.424L108.214 20.4392C107.097 20.2421 106.138 20.136 105.353 20.136V21.136ZM108.041 21.424L107.876 22.4104C109.01 22.5993 109.718 22.8047 110.089 22.9904L110.537 22.096L110.984 21.2016C110.331 20.8753 109.375 20.6327 108.205 20.4376L108.041 21.424ZM110.537 22.096L109.612 21.7152L88.1078 73.9393L89.0325 74.32L89.9572 74.7007L111.461 22.4767L110.537 22.096ZM89.0325 74.32L88.1094 73.9354C85.8957 79.2483 83.4974 83.0745 80.9508 85.4999L81.6405 86.224L82.3302 86.9481C85.1596 84.2535 87.6893 80.1437 89.9556 74.7046L89.0325 74.32ZM81.6405 86.224L80.9422 85.5082C78.5244 87.867 75.4561 89.064 71.6565 89.064V90.064V91.064C75.9209 91.064 79.5086 89.701 82.3388 86.9398L81.6405 86.224ZM120.389 68.944L119.959 69.8469L119.967 69.8507L120.389 68.944ZM113.861 63.472L113.025 64.0216C113.031 64.0301 113.036 64.0386 113.042 64.0469L113.861 63.472ZM114.053 46.192L114.868 46.7712L114.875 46.7612L114.053 46.192ZM121.061 40.528L121.459 41.4451L121.468 41.441L121.061 40.528ZM138.821 39.952L138.436 40.8751C138.446 40.8793 138.456 40.8834 138.467 40.8873L138.821 39.952ZM145.349 44.08L144.665 44.8103C145.059 45.1787 145.674 45.1685 146.056 44.7871L145.349 44.08ZM145.829 43.6L146.536 44.3071C146.926 43.9166 146.926 43.2834 146.536 42.8929L145.829 43.6ZM142.853 41.008H141.853C141.853 41.3079 141.987 41.592 142.219 41.782L142.853 41.008ZM140.069 32.848L140.706 32.0776L140.706 32.0776L140.069 32.848ZM119.141 37.072L118.837 38.0249C119.267 38.1617 119.735 37.9939 119.98 37.6152L119.141 37.072ZM115.589 34.96L114.859 35.6439C114.866 35.6518 114.874 35.6595 114.881 35.6671L115.589 34.96ZM149.093 25.936L148.44 26.6934L148.447 26.6999L149.093 25.936ZM151.973 68.944L151.391 68.1303L151.391 68.1303L151.973 68.944ZM143.525 70.864H142.525C142.525 71.4163 142.972 71.864 143.525 71.864V70.864ZM143.525 66.928L142.817 66.2209C142.63 66.4084 142.525 66.6628 142.525 66.928H143.525ZM145.733 64.528L146.533 65.128C146.806 64.7632 146.798 64.2594 146.513 63.9033L145.733 64.528ZM145.349 64.048L146.129 63.4233C145.948 63.1972 145.678 63.0606 145.389 63.0488C145.1 63.0371 144.82 63.1513 144.621 63.362L145.349 64.048ZM138.533 69.136L138.104 68.2322L138.095 68.2368L138.533 69.136ZM140.261 60.208L140.828 61.0312L140.828 61.0312L140.261 60.208ZM140.165 49.264L139.578 50.0739C139.582 50.0771 139.587 50.0802 139.591 50.0832L140.165 49.264ZM125.573 49.264L126.182 50.0566L126.186 50.0534L125.573 49.264ZM125.573 60.304L124.963 61.0966C124.969 61.1016 124.976 61.1065 124.982 61.1114L125.573 60.304ZM129.413 70.864V69.864C126.283 69.864 123.42 69.2513 120.81 68.0373L120.389 68.944L119.967 69.8507C122.861 71.1967 126.014 71.864 129.413 71.864V70.864ZM120.389 68.944L120.818 68.0411C118.281 66.833 116.241 65.12 114.679 62.8971L113.861 63.472L113.042 64.0469C114.808 66.56 117.12 68.495 119.959 69.8469L120.389 68.944ZM113.861 63.472L114.696 62.9224C113.218 60.6761 112.461 57.9934 112.461 54.832H111.461H110.461C110.461 58.3266 111.303 61.4039 113.025 64.0216L113.861 63.472ZM111.461 54.832H112.461C112.461 51.6865 113.274 49.0147 114.868 46.7712L114.053 46.192L113.237 45.6128C111.375 48.2333 110.461 51.3215 110.461 54.832H111.461ZM114.053 46.192L114.875 46.7612C116.49 44.4273 118.676 42.6553 121.459 41.4451L121.061 40.528L120.662 39.6109C117.557 40.9607 115.071 42.9647 113.23 45.6228L114.053 46.192ZM121.061 40.528L121.468 41.441C124.337 40.1592 127.493 39.512 130.949 39.512V38.512V37.512C127.236 37.512 123.8 38.2088 120.653 39.615L121.061 40.528ZM130.949 38.512V39.512C133.784 39.512 136.274 39.9741 138.436 40.8751L138.821 39.952L139.205 39.0289C136.759 38.0099 134.001 37.512 130.949 37.512V38.512ZM138.821 39.952L138.467 40.8873C140.704 41.7338 142.77 43.0369 144.665 44.8103L145.349 44.08L146.032 43.3497C143.959 41.4111 141.673 39.9622 139.174 39.0167L138.821 39.952ZM145.349 44.08L146.056 44.7871L146.536 44.3071L145.829 43.6L145.121 42.8929L144.641 43.3729L145.349 44.08ZM145.829 43.6L146.536 42.8929C145.922 42.2789 144.896 41.3879 143.486 40.234L142.853 41.008L142.219 41.782C143.625 42.9321 144.583 43.7691 145.121 44.3071L145.829 43.6ZM142.853 41.008H143.853V39.088H142.853H141.853V41.008H142.853ZM142.853 39.088H143.853C143.853 36.1962 142.814 33.822 140.706 32.0776L140.069 32.848L139.431 33.6184C141.035 34.946 141.853 36.7318 141.853 39.088H142.853ZM140.069 32.848L140.706 32.0776C138.613 30.3453 135.765 29.544 132.293 29.544V30.544V31.544C135.476 31.544 137.812 32.2787 139.431 33.6184L140.069 32.848ZM132.293 30.544V29.544C126.06 29.544 121.331 31.8458 118.301 36.5287L119.141 37.072L119.98 37.6152C122.582 33.5942 126.621 31.544 132.293 31.544V30.544ZM119.141 37.072L119.444 36.1191C118.174 35.7152 117.133 35.0901 116.296 34.2529L115.589 34.96L114.881 35.6671C115.964 36.7499 117.291 37.5328 118.837 38.0249L119.141 37.072ZM115.589 34.96L116.318 34.2761C115.492 33.3947 115.148 32.5409 115.148 31.696H114.148H113.148C113.148 33.1551 113.765 34.4773 114.859 35.6439L115.589 34.96ZM114.148 31.696H115.148C115.148 30.1159 115.846 28.6066 117.42 27.1498L116.741 26.416L116.061 25.6822C114.179 27.4254 113.148 29.4361 113.148 31.696H114.148ZM116.741 26.416L117.42 27.1498C119.014 25.6737 121.211 24.4554 124.059 23.5267L123.749 22.576L123.438 21.6253C120.398 22.6166 117.923 23.9583 116.061 25.6822L116.741 26.416ZM123.749 22.576L124.059 23.5267C126.892 22.6029 129.986 22.136 133.349 22.136V21.136V20.136C129.799 20.136 126.493 20.6291 123.438 21.6253L123.749 22.576ZM133.349 21.136V22.136C139.985 22.136 144.968 23.7009 148.44 26.6934L149.093 25.936L149.745 25.1786C145.793 21.771 140.28 20.136 133.349 20.136V21.136ZM149.093 25.936L148.447 26.6999C151.906 29.6218 153.661 33.6149 153.661 38.8H154.661H155.661C155.661 33.1051 153.703 28.5222 149.738 25.1721L149.093 25.936ZM154.661 38.8H153.661V62.8H154.661H155.661V38.8H154.661ZM154.661 62.8H153.661C153.661 65.393 152.848 67.0894 151.391 68.1303L151.973 68.944L152.554 69.7577C154.681 68.2386 155.661 65.839 155.661 62.8H154.661ZM151.973 68.944L151.391 68.1303C149.854 69.2282 147.294 69.864 143.525 69.864V70.864V71.864C147.435 71.864 150.507 71.2198 152.554 69.7577L151.973 68.944ZM143.525 70.864H144.525V66.928H143.525H142.525V70.864H143.525ZM143.525 66.928L144.232 67.6351C145.32 66.5471 146.101 65.7027 146.533 65.128L145.733 64.528L144.933 63.928C144.596 64.3773 143.905 65.1329 142.817 66.2209L143.525 66.928ZM145.733 64.528L146.513 63.9033L146.129 63.4233L145.349 64.048L144.568 64.6727L144.952 65.1527L145.733 64.528ZM145.349 64.048L144.621 63.362C142.582 65.5243 140.409 67.1407 138.104 68.2323L138.533 69.136L138.961 70.0397C141.52 68.8273 143.891 67.0517 146.076 64.734L145.349 64.048ZM138.533 69.136L138.095 68.2368C135.907 69.301 133.031 69.864 129.413 69.864V70.864V71.864C133.218 71.864 136.422 71.275 138.97 70.0352L138.533 69.136ZM132.484 62.128V63.128C135.924 63.128 138.743 62.4692 140.828 61.0312L140.261 60.208L139.693 59.3848C138.066 60.5068 135.701 61.128 132.484 61.128V62.128ZM140.261 60.208L140.828 61.0312C142.971 59.5537 144.045 57.4131 144.045 54.736H143.045H142.045C142.045 56.7949 141.262 58.3023 139.693 59.3848L140.261 60.208ZM143.045 54.736H144.045C144.045 52.099 142.92 49.972 140.738 48.4448L140.165 49.264L139.591 50.0832C141.249 51.2439 142.045 52.765 142.045 54.736H143.045ZM140.165 49.264L140.751 48.4541C138.669 46.9461 135.91 46.248 132.581 46.248V47.248V48.248C135.651 48.248 137.948 48.8939 139.578 50.0739L140.165 49.264ZM132.581 47.248V46.248C129.49 46.248 126.914 46.9537 124.959 48.4746L125.573 49.264L126.186 50.0534C127.687 48.8863 129.783 48.248 132.581 48.248V47.248ZM125.573 49.264L124.963 48.4714C123.019 49.9667 122.077 52.1028 122.077 54.736H123.077H124.077C124.077 52.6332 124.798 51.1213 126.182 50.0566L125.573 49.264ZM123.077 54.736H122.077C122.077 57.4228 123.012 59.5958 124.963 61.0966L125.573 60.304L126.182 59.5114C124.805 58.4522 124.077 56.9132 124.077 54.736H123.077ZM125.573 60.304L124.982 61.1114C126.877 62.4959 129.416 63.128 132.484 63.128V62.128V61.128C129.665 61.128 127.596 60.5441 126.163 59.4966L125.573 60.304ZM168.198 23.536L168.836 24.3064C168.841 24.3021 168.846 24.2978 168.851 24.2934L168.198 23.536ZM176.454 21.136H177.454C177.454 20.5837 177.006 20.136 176.454 20.136V21.136ZM176.454 26.32L177.258 26.9144C177.385 26.7423 177.454 26.534 177.454 26.32H176.454ZM174.63 28.912L173.736 28.4648C173.543 28.8498 173.619 29.3147 173.923 29.6191L174.63 28.912ZM175.014 29.296L174.307 30.0031C174.511 30.2072 174.793 30.3131 175.081 30.2937C175.369 30.2744 175.635 30.1316 175.809 29.902L175.014 29.296ZM181.734 23.248L182.218 24.1233L182.225 24.119L181.734 23.248ZM200.262 23.344L199.782 24.2211C199.79 24.2256 199.798 24.23 199.807 24.2342L200.262 23.344ZM206.694 29.392L205.831 29.8972L205.831 29.8972L206.694 29.392ZM206.406 62.704L205.571 62.154C205.568 62.1588 205.565 62.1636 205.561 62.1685L206.406 62.704ZM199.494 68.752L199.925 69.6541L199.925 69.6541L199.494 68.752ZM182.118 69.424L181.738 70.3492C181.748 70.353 181.757 70.3568 181.767 70.3603L182.118 69.424ZM175.782 65.296L176.489 64.5889C176.288 64.3878 176.011 64.2818 175.727 64.2975C175.443 64.3133 175.179 64.4492 175.001 64.6713L175.782 65.296ZM175.398 65.776L174.617 65.1513C174.34 65.4979 174.324 65.9858 174.579 66.3495L175.398 65.776ZM177.51 67.792H178.51C178.51 67.4735 178.358 67.174 178.101 66.9856L177.51 67.792ZM165.414 90.064H164.414C164.414 90.6163 164.862 91.064 165.414 91.064V90.064ZM194.502 33.52L193.874 34.2979C193.885 34.3067 193.896 34.3152 193.907 34.3236L194.502 33.52ZM180.102 33.616L180.689 34.4259C180.695 34.4216 180.7 34.4172 180.706 34.4127L180.102 33.616ZM180.006 58.384L179.388 59.1703C179.393 59.1738 179.397 59.1773 179.402 59.1807L180.006 58.384ZM165.414 29.392H166.414C166.414 27.3279 167.205 25.6562 168.836 24.3064L168.198 23.536L167.56 22.7656C165.479 24.4878 164.414 26.7201 164.414 29.392H165.414ZM168.198 23.536L168.851 24.2934C170.455 22.9109 172.932 22.136 176.454 22.136V21.136V20.136C172.68 20.136 169.653 20.9611 167.545 22.7786L168.198 23.536ZM176.454 21.136H175.454V26.32H176.454H177.454V21.136H176.454ZM176.454 26.32L175.65 25.7256C175.104 26.4641 174.675 27.0552 174.364 27.4965C174.074 27.9089 173.84 28.2555 173.736 28.4648L174.63 28.912L175.524 29.3592C175.523 29.3626 175.53 29.3477 175.555 29.3069C175.578 29.269 175.61 29.2189 175.652 29.1552C175.736 29.0276 175.851 28.8591 176 28.6475C176.297 28.2248 176.716 27.6479 177.258 26.9144L176.454 26.32ZM174.63 28.912L173.923 29.6191L174.307 30.0031L175.014 29.296L175.721 28.5889L175.337 28.2049L174.63 28.912ZM175.014 29.296L175.809 29.902C177.791 27.3011 179.93 25.3872 182.218 24.1232L181.734 23.248L181.25 22.3728C178.674 23.7968 176.333 25.9149 174.219 28.69L175.014 29.296ZM181.734 23.248L182.225 24.119C184.536 22.8156 187.428 22.136 190.95 22.136V21.136V20.136C187.176 20.136 183.924 20.8644 181.243 22.377L181.734 23.248ZM190.95 21.136V22.136C194.327 22.136 197.262 22.841 199.782 24.2211L200.262 23.344L200.742 22.4669C197.886 20.903 194.613 20.136 190.95 20.136V21.136ZM200.262 23.344L199.807 24.2342C202.392 25.5569 204.393 27.4407 205.831 29.8972L206.694 29.392L207.557 28.8868C205.923 26.0953 203.636 23.9471 200.717 22.4537L200.262 23.344ZM206.694 29.392L205.831 29.8972C207.267 32.3508 207.998 35.1805 207.998 38.416H208.998H209.998C209.998 34.8675 209.193 31.6812 207.557 28.8868L206.694 29.392ZM208.998 38.416H207.998V53.584H208.998H209.998V38.416H208.998ZM208.998 53.584H207.998C207.998 56.8648 207.181 59.7095 205.571 62.154L206.406 62.704L207.241 63.254C209.087 60.4505 209.998 57.2152 209.998 53.584H208.998ZM206.406 62.704L205.561 62.1685C204.003 64.6258 201.846 66.5186 199.063 67.8499L199.494 68.752L199.925 69.6541C203.03 68.1694 205.481 66.0302 207.251 63.2395L206.406 62.704ZM199.494 68.752L199.063 67.8499C196.271 69.1851 193.093 69.864 189.51 69.864V70.864V71.864C193.351 71.864 196.829 71.1349 199.925 69.6541L199.494 68.752ZM189.51 70.864V69.864C187.279 69.864 184.934 69.412 182.469 68.4877L182.118 69.424L181.767 70.3603C184.422 71.356 187.005 71.864 189.51 71.864V70.864ZM182.118 69.424L182.498 68.4988C180.111 67.5199 178.114 66.2139 176.489 64.5889L175.782 65.296L175.075 66.0031C176.906 67.8341 179.133 69.2801 181.738 70.3492L182.118 69.424ZM175.782 65.296L175.001 64.6713L174.617 65.1513L175.398 65.776L176.179 66.4007L176.563 65.9207L175.782 65.296ZM175.398 65.776L174.579 66.3495C175.113 67.113 175.912 67.86 176.919 68.5984L177.51 67.792L178.101 66.9856C177.188 66.316 176.579 65.719 176.217 65.2025L175.398 65.776ZM177.51 67.792H176.51V82H177.51H178.51V67.792H177.51ZM177.51 82H176.51C176.51 84.3967 175.635 86.0801 173.931 87.216C172.156 88.3995 169.366 89.064 165.414 89.064V90.064V91.064C169.526 91.064 172.784 90.3845 175.041 88.8801C177.369 87.3279 178.51 84.9793 178.51 82H177.51ZM165.414 90.064H166.414V29.392H165.414H164.414V90.064H165.414ZM187.206 60.496V61.496C190.471 61.496 193.151 60.7979 195.116 59.2694L194.502 58.48L193.888 57.6906C192.397 58.8501 190.213 59.496 187.206 59.496V60.496ZM194.502 58.48L195.116 59.2694C197.117 57.7131 198.094 55.5174 198.094 52.816H197.094H196.094C196.094 54.9785 195.343 56.5589 193.888 57.6906L194.502 58.48ZM197.094 52.816H198.094V39.184H197.094H196.094V52.816H197.094ZM197.094 39.184H198.094C198.094 36.4291 197.123 34.2171 195.097 32.7164L194.502 33.52L193.907 34.3236C195.337 35.3829 196.094 36.9469 196.094 39.184H197.094ZM194.502 33.52L195.13 32.7421C193.219 31.1983 190.526 30.504 187.206 30.504V31.504V32.504C190.286 32.504 192.457 33.1537 193.874 34.2979L194.502 33.52ZM187.206 31.504V30.504C184.16 30.504 181.565 31.2508 179.498 32.8193L180.102 33.616L180.706 34.4127C182.351 33.1652 184.492 32.504 187.206 32.504V31.504ZM180.102 33.616L179.515 32.8061C177.435 34.3123 176.318 36.2937 176.318 38.704H177.318H178.318C178.318 37.0183 179.057 35.6077 180.689 34.4259L180.102 33.616ZM177.318 38.704H176.318V53.296H177.318H178.318V38.704H177.318ZM177.318 53.296H176.318C176.318 55.635 177.395 57.6046 179.388 59.1703L180.006 58.384L180.624 57.5977C179.033 56.3474 178.318 54.925 178.318 53.296H177.318ZM180.006 58.384L179.402 59.1807C181.473 60.752 184.102 61.496 187.206 61.496V60.496V59.496C184.422 59.496 182.251 58.832 180.61 57.5873L180.006 58.384ZM225.482 68.944L225.052 69.8469L225.061 69.8507L225.482 68.944ZM218.954 63.472L218.119 64.0216C218.124 64.0301 218.13 64.0386 218.136 64.0469L218.954 63.472ZM219.146 46.192L219.961 46.7712L219.968 46.7612L219.146 46.192ZM226.154 40.528L226.553 41.4451L226.562 41.441L226.154 40.528ZM243.914 39.952L243.53 40.8751C243.54 40.8793 243.55 40.8834 243.56 40.8873L243.914 39.952ZM250.442 44.08L249.759 44.8103C250.153 45.1787 250.768 45.1685 251.149 44.7871L250.442 44.08ZM250.922 43.6L251.629 44.3071C252.02 43.9166 252.02 43.2834 251.629 42.8929L250.922 43.6ZM247.946 41.008H246.946C246.946 41.3079 247.081 41.592 247.313 41.782L247.946 41.008ZM245.162 32.848L245.8 32.0776L245.8 32.0776L245.162 32.848ZM224.234 37.072L223.931 38.0249C224.361 38.1617 224.829 37.9939 225.074 37.6152L224.234 37.072ZM220.682 34.96L219.953 35.6439C219.96 35.6518 219.968 35.6595 219.975 35.6671L220.682 34.96ZM254.186 25.936L253.533 26.6934L253.541 26.6999L254.186 25.936ZM257.066 68.944L256.485 68.1303L256.485 68.1303L257.066 68.944ZM248.618 70.864H247.618C247.618 71.4163 248.066 71.864 248.618 71.864V70.864ZM248.618 66.928L247.911 66.2209C247.724 66.4084 247.618 66.6628 247.618 66.928H248.618ZM250.826 64.528L251.626 65.128C251.9 64.7632 251.892 64.2594 251.607 63.9033L250.826 64.528ZM250.442 64.048L251.223 63.4233C251.042 63.1972 250.772 63.0606 250.483 63.0488C250.194 63.0371 249.913 63.1513 249.715 63.362L250.442 64.048ZM243.626 69.136L243.198 68.2322L243.189 68.2368L243.626 69.136ZM245.354 60.208L245.922 61.0312L245.922 61.0312L245.354 60.208ZM245.258 49.264L244.672 50.0739C244.676 50.0771 244.68 50.0802 244.685 50.0832L245.258 49.264ZM230.666 49.264L231.276 50.0566L231.28 50.0534L230.666 49.264ZM230.666 60.304L230.057 61.0966C230.063 61.1016 230.07 61.1065 230.076 61.1114L230.666 60.304ZM234.506 70.864V69.864C231.377 69.864 228.514 69.2513 225.904 68.0373L225.482 68.944L225.061 69.8507C227.954 71.1967 231.108 71.864 234.506 71.864V70.864ZM225.482 68.944L225.912 68.0411C223.375 66.833 221.334 65.12 219.772 62.8971L218.954 63.472L218.136 64.0469C219.902 66.56 222.213 68.495 225.052 69.8469L225.482 68.944ZM218.954 63.472L219.79 62.9224C218.312 60.6761 217.554 57.9934 217.554 54.832H216.554H215.554C215.554 58.3266 216.397 61.4039 218.119 64.0216L218.954 63.472ZM216.554 54.832H217.554C217.554 51.6865 218.367 49.0147 219.961 46.7712L219.146 46.192L218.331 45.6128C216.469 48.2333 215.554 51.3215 215.554 54.832H216.554ZM219.146 46.192L219.968 46.7612C221.584 44.4273 223.77 42.6553 226.553 41.4451L226.154 40.528L225.756 39.6109C222.651 40.9607 220.164 42.9647 218.324 45.6228L219.146 46.192ZM226.154 40.528L226.562 41.441C229.431 40.1592 232.586 39.512 236.042 39.512V38.512V37.512C232.33 37.512 228.894 38.2088 225.746 39.615L226.154 40.528ZM236.042 38.512V39.512C238.878 39.512 241.367 39.9741 243.53 40.8751L243.914 39.952L244.299 39.0289C241.853 38.0099 239.095 37.512 236.042 37.512V38.512ZM243.914 39.952L243.56 40.8873C245.798 41.7338 247.863 43.0369 249.759 44.8103L250.442 44.08L251.125 43.3497C249.053 41.4111 246.767 39.9622 244.268 39.0167L243.914 39.952ZM250.442 44.08L251.149 44.7871L251.629 44.3071L250.922 43.6L250.215 42.8929L249.735 43.3729L250.442 44.08ZM250.922 43.6L251.629 42.8929C251.015 42.2789 249.99 41.3879 248.579 40.234L247.946 41.008L247.313 41.782C248.719 42.9321 249.677 43.7691 250.215 44.3071L250.922 43.6ZM247.946 41.008H248.946V39.088H247.946H246.946V41.008H247.946ZM247.946 39.088H248.946C248.946 36.1962 247.908 33.822 245.8 32.0776L245.162 32.848L244.525 33.6184C246.129 34.946 246.946 36.7318 246.946 39.088H247.946ZM245.162 32.848L245.8 32.0776C243.707 30.3453 240.859 29.544 237.386 29.544V30.544V31.544C240.57 31.544 242.906 32.2787 244.525 33.6184L245.162 32.848ZM237.386 30.544V29.544C231.154 29.544 226.425 31.8458 223.395 36.5287L224.234 37.072L225.074 37.6152C227.676 33.5942 231.715 31.544 237.386 31.544V30.544ZM224.234 37.072L224.537 36.1191C223.268 35.7152 222.227 35.0901 221.389 34.2529L220.682 34.96L219.975 35.6671C221.058 36.7499 222.384 37.5328 223.931 38.0249L224.234 37.072ZM220.682 34.96L221.412 34.2761C220.586 33.3947 220.242 32.5409 220.242 31.696H219.242H218.242C218.242 33.1551 218.859 34.4773 219.953 35.6439L220.682 34.96ZM219.242 31.696H220.242C220.242 30.1159 220.94 28.6066 222.514 27.1498L221.834 26.416L221.155 25.6822C219.272 27.4254 218.242 29.4361 218.242 31.696H219.242ZM221.834 26.416L222.514 27.1498C224.108 25.6737 226.304 24.4554 229.152 23.5267L228.842 22.576L228.532 21.6253C225.492 22.6166 223.017 23.9583 221.155 25.6822L221.834 26.416ZM228.842 22.576L229.152 23.5267C231.985 22.6029 235.079 22.136 238.442 22.136V21.136V20.136C234.893 20.136 231.587 20.6291 228.532 21.6253L228.842 22.576ZM238.442 21.136V22.136C245.078 22.136 250.062 23.7009 253.533 26.6934L254.186 25.936L254.839 25.1786C250.886 21.771 245.374 20.136 238.442 20.136V21.136ZM254.186 25.936L253.541 26.6999C256.999 29.6218 258.754 33.6149 258.754 38.8H259.754H260.754C260.754 33.1051 258.797 28.5222 254.832 25.1721L254.186 25.936ZM259.754 38.8H258.754V62.8H259.754H260.754V38.8H259.754ZM259.754 62.8H258.754C258.754 65.393 257.942 67.0894 256.485 68.1303L257.066 68.944L257.647 69.7577C259.774 68.2386 260.754 65.839 260.754 62.8H259.754ZM257.066 68.944L256.485 68.1303C254.948 69.2282 252.387 69.864 248.618 69.864V70.864V71.864C252.529 71.864 255.601 71.2198 257.647 69.7577L257.066 68.944ZM248.618 70.864H249.618V66.928H248.618H247.618V70.864H248.618ZM248.618 66.928L249.325 67.6351C250.413 66.5471 251.195 65.7027 251.626 65.128L250.826 64.528L250.026 63.928C249.689 64.3773 248.999 65.1329 247.911 66.2209L248.618 66.928ZM250.826 64.528L251.607 63.9033L251.223 63.4233L250.442 64.048L249.661 64.6727L250.045 65.1527L250.826 64.528ZM250.442 64.048L249.715 63.362C247.676 65.5243 245.503 67.1407 243.198 68.2323L243.626 69.136L244.054 70.0397C246.614 68.8273 248.985 67.0517 251.17 64.734L250.442 64.048ZM243.626 69.136L243.189 68.2368C241.001 69.301 238.125 69.864 234.506 69.864V70.864V71.864C238.312 71.864 241.515 71.275 244.064 70.0352L243.626 69.136ZM237.578 62.128V63.128C241.018 63.128 243.837 62.4692 245.922 61.0312L245.354 60.208L244.787 59.3848C243.16 60.5068 240.795 61.128 237.578 61.128V62.128ZM245.354 60.208L245.922 61.0312C248.064 59.5537 249.138 57.4131 249.138 54.736H248.138H247.138C247.138 56.7949 246.356 58.3023 244.787 59.3848L245.354 60.208ZM248.138 54.736H249.138C249.138 52.099 248.014 49.972 245.832 48.4448L245.258 49.264L244.685 50.0832C246.343 51.2439 247.138 52.765 247.138 54.736H248.138ZM245.258 49.264L245.845 48.4541C243.762 46.9461 241.004 46.248 237.674 46.248V47.248V48.248C240.745 48.248 243.042 48.8939 244.672 50.0739L245.258 49.264ZM237.674 47.248V46.248C234.584 46.248 232.008 46.9537 230.052 48.4746L230.666 49.264L231.28 50.0534C232.781 48.8863 234.876 48.248 237.674 48.248V47.248ZM230.666 49.264L230.057 48.4714C228.113 49.9667 227.17 52.1028 227.17 54.736H228.17H229.17C229.17 52.6332 229.892 51.1213 231.276 50.0566L230.666 49.264ZM228.17 54.736H227.17C227.17 57.4228 228.105 59.5958 230.057 61.0966L230.666 60.304L231.276 59.5114C229.899 58.4522 229.17 56.9132 229.17 54.736H228.17ZM230.666 60.304L230.076 61.1114C231.971 62.4959 234.51 63.128 237.578 63.128V62.128V61.128C234.759 61.128 232.69 60.5441 231.256 59.4966L230.666 60.304ZM285.964 34.576L286.606 35.3425C286.61 35.3392 286.614 35.3358 286.618 35.3324L285.964 34.576ZM279.532 69.136L280.046 69.9935L280.046 69.9935L279.532 69.136ZM270.508 70.864H269.508C269.508 71.4163 269.955 71.864 270.508 71.864V70.864ZM273.292 23.536L272.652 22.7678C272.647 22.7713 272.643 22.7749 272.639 22.7786L273.292 23.536ZM281.932 21.136H282.932C282.932 20.5837 282.484 20.136 281.932 20.136V21.136ZM281.932 26.8L282.682 27.4616C282.843 27.2789 282.932 27.0437 282.932 26.8H281.932ZM279.628 29.968L278.756 29.4777C278.5 29.9336 278.638 30.5099 279.073 30.8L279.628 29.968ZM280.204 30.352L279.649 31.184C279.871 31.3319 280.142 31.3851 280.403 31.3319C280.665 31.2787 280.894 31.1234 281.04 30.9007L280.204 30.352ZM301.612 23.344L300.889 24.0352C300.894 24.0406 300.899 24.0459 300.905 24.0511L301.612 23.344ZM302.38 32.944L301.894 33.8182C302.325 34.0576 302.866 33.9472 303.169 33.5579L302.38 32.944ZM295.18 31.504V30.504C291.215 30.504 287.895 31.5836 285.31 33.8196L285.964 34.576L286.618 35.3324C288.769 33.4724 291.592 32.504 295.18 32.504V31.504ZM285.964 34.576L285.322 33.8095C282.734 35.9776 281.412 38.7511 281.412 42.064H282.412H283.412C283.412 39.3609 284.458 37.1424 286.606 35.3425L285.964 34.576ZM282.412 42.064H281.412V63.568H282.412H283.412V42.064H282.412ZM282.412 63.568H281.412C281.412 65.8366 280.588 67.3361 279.017 68.2785L279.532 69.136L280.046 69.9935C282.315 68.6319 283.412 66.4194 283.412 63.568H282.412ZM279.532 69.136L279.017 68.2785C277.335 69.2881 274.551 69.864 270.508 69.864V70.864V71.864C274.657 71.864 277.889 71.2879 280.046 69.9935L279.532 69.136ZM270.508 70.864H271.508V30.352H270.508H269.508V70.864H270.508ZM270.508 30.352H271.508C271.508 27.6347 272.353 25.6652 273.945 24.2934L273.292 23.536L272.639 22.7786C270.518 24.6068 269.508 27.1813 269.508 30.352H270.508ZM273.292 23.536L273.932 24.3042C275.598 22.916 278.206 22.136 281.932 22.136V21.136V20.136C277.978 20.136 274.826 20.956 272.652 22.7678L273.292 23.536ZM281.932 21.136H280.932V26.8H281.932H282.932V21.136H281.932ZM281.932 26.8L281.182 26.1384C280.186 27.2673 279.374 28.3802 278.756 29.4777L279.628 29.968L280.499 30.4583C281.034 29.5078 281.758 28.5087 282.682 27.4616L281.932 26.8ZM279.628 29.968L279.073 30.8L279.649 31.184L280.204 30.352L280.758 29.5199L280.182 29.1359L279.628 29.968ZM280.204 30.352L281.04 30.9007C284.931 24.9708 289.702 22.136 295.372 22.136V21.136V20.136C288.881 20.136 283.54 23.4452 279.368 29.8033L280.204 30.352ZM295.372 21.136V22.136C297.95 22.136 299.729 22.8222 300.889 24.0352L301.612 23.344L302.334 22.6528C300.679 20.9218 298.297 20.136 295.372 20.136V21.136ZM301.612 23.344L300.905 24.0511C302.107 25.2532 302.724 26.7821 302.724 28.72H303.724H304.724C304.724 26.3059 303.933 24.2508 302.319 22.6369L301.612 23.344ZM303.724 28.72H302.724C302.724 30.1943 302.331 31.3778 301.59 32.3301L302.38 32.944L303.169 33.5579C304.22 32.2062 304.724 30.5737 304.724 28.72H303.724ZM302.38 32.944L302.865 32.0698C300.929 30.9938 298.336 30.504 295.18 30.504V31.504V32.504C298.167 32.504 300.375 32.9742 301.894 33.8182L302.38 32.944ZM338.519 68.368L337.832 69.094C337.845 69.1063 337.858 69.1183 337.872 69.1299L338.519 68.368ZM338.519 4.528L339.186 5.27324C339.193 5.26691 339.2 5.26048 339.207 5.25395L338.519 4.528ZM379.511 6.064L379.064 6.95844L379.069 6.96101L379.511 6.064ZM389.687 15.28L388.829 15.7925C388.832 15.7979 388.835 15.8033 388.838 15.8087L389.687 15.28ZM389.687 57.424L388.835 56.9014L388.835 56.9014L389.687 57.424ZM379.415 66.736L379.862 67.6304L379.868 67.6278L379.415 66.736ZM376.151 55.216L376.806 55.9717L376.816 55.9634L376.151 55.216ZM376.151 17.584L375.496 18.3397L375.496 18.3397L376.151 17.584ZM349.559 13.84V12.84C349.007 12.84 348.559 13.2877 348.559 13.84H349.559ZM349.559 58.96H348.559C348.559 59.5123 349.007 59.96 349.559 59.96V58.96ZM343.127 70V69C341.555 69 340.253 68.5296 339.167 67.6061L338.519 68.368L337.872 69.1299C339.345 70.3824 341.115 71 343.127 71V70ZM338.519 68.368L339.207 67.642C338.189 66.6775 337.695 65.5313 337.695 64.144H336.695H335.695C335.695 66.0847 336.418 67.7545 337.832 69.094L338.519 68.368ZM336.695 64.144H337.695V8.65599H336.695H335.695V64.144H336.695ZM336.695 8.65599H337.695C337.695 7.27007 338.187 6.16729 339.186 5.27324L338.519 4.528L337.852 3.78276C336.42 5.06471 335.695 6.71393 335.695 8.65599H336.695ZM338.519 4.528L339.207 5.25395C340.217 4.29756 341.497 3.8 343.127 3.8V2.8V1.8C341.045 1.8 339.254 2.45444 337.832 3.80204L338.519 4.528ZM343.127 2.8V3.8H364.439V2.8V1.8H343.127V2.8ZM364.439 2.8V3.8C370.006 3.8 374.873 4.86277 379.064 6.95843L379.511 6.064L379.958 5.16957C375.446 2.91322 370.264 1.8 364.439 1.8V2.8ZM379.511 6.064L379.069 6.96101C383.324 9.05756 386.566 12.0012 388.829 15.7925L389.687 15.28L390.546 14.7675C388.073 10.6228 384.53 7.42244 379.953 5.16699L379.511 6.064ZM389.687 15.28L388.838 15.8087C391.162 19.5386 392.335 23.8317 392.335 28.72H393.335H394.335C394.335 23.4963 393.077 18.8294 390.536 14.7512L389.687 15.28ZM393.335 28.72H392.335V43.888H393.335H394.335V28.72H393.335ZM393.335 43.888H392.335C392.335 48.7761 391.162 53.1042 388.835 56.9014L389.687 57.424L390.54 57.9466C393.077 53.8078 394.335 49.1119 394.335 43.888H393.335ZM389.687 57.424L388.835 56.9014C386.506 60.7015 383.225 63.6823 378.963 65.8442L379.415 66.736L379.868 67.6278C384.438 65.3097 388.005 62.0825 390.54 57.9466L389.687 57.424ZM379.415 66.736L378.968 65.8416C374.775 67.938 369.94 69 364.439 69V70V71C370.202 71 375.351 69.886 379.862 67.6304L379.415 66.736ZM364.439 70V69H343.127V70V71H364.439V70ZM363.479 58.96V59.96C369.179 59.96 373.676 58.6842 376.806 55.9717L376.151 55.216L375.496 54.4603C372.866 56.7398 368.915 57.96 363.479 57.96V58.96ZM376.151 55.216L376.816 55.9634C379.965 53.1636 381.471 49.1125 381.471 43.984H380.471H379.471C379.471 48.7115 378.097 52.1484 375.487 54.4686L376.151 55.216ZM380.471 43.984H381.471V28.528H380.471H379.471V43.984H380.471ZM380.471 28.528H381.471C381.471 23.5191 379.96 19.5616 376.806 16.8283L376.151 17.584L375.496 18.3397C378.102 20.5984 379.471 23.9369 379.471 28.528H380.471ZM376.151 17.584L376.806 16.8283C373.676 14.1158 369.179 12.84 363.479 12.84V13.84V14.84C368.915 14.84 372.866 16.0601 375.496 18.3397L376.151 17.584ZM363.479 13.84V12.84H349.559V13.84V14.84H363.479V13.84ZM349.559 13.84H348.559V58.96H349.559H350.559V13.84H349.559ZM349.559 58.96V59.96H363.479V58.96V57.96H349.559V58.96ZM418.433 34.576L419.075 35.3425C419.079 35.3392 419.083 35.3358 419.087 35.3324L418.433 34.576ZM412.001 69.136L412.515 69.9935L412.515 69.9935L412.001 69.136ZM402.977 70.864H401.977C401.977 71.4163 402.424 71.864 402.977 71.864V70.864ZM405.761 23.536L405.12 22.7678C405.116 22.7713 405.112 22.7749 405.108 22.7786L405.761 23.536ZM414.401 21.136H415.401C415.401 20.5837 414.953 20.136 414.401 20.136V21.136ZM414.401 26.8L415.15 27.4616C415.312 27.2789 415.401 27.0437 415.401 26.8H414.401ZM412.097 29.968L411.225 29.4777C410.969 29.9336 411.107 30.5099 411.542 30.8L412.097 29.968ZM412.673 30.352L412.118 31.184C412.34 31.3319 412.611 31.3851 412.872 31.3319C413.133 31.2787 413.362 31.1234 413.509 30.9007L412.673 30.352ZM434.081 23.344L433.358 24.0352C433.363 24.0406 433.368 24.0459 433.373 24.0511L434.081 23.344ZM434.849 32.944L434.363 33.8182C434.794 34.0576 435.335 33.9472 435.638 33.5579L434.849 32.944ZM427.649 31.504V30.504C423.684 30.504 420.364 31.5836 417.778 33.8196L418.433 34.576L419.087 35.3324C421.237 33.4724 424.061 32.504 427.649 32.504V31.504ZM418.433 34.576L417.79 33.8095C415.203 35.9776 413.881 38.7511 413.881 42.064H414.881H415.881C415.881 39.3609 416.926 37.1424 419.075 35.3425L418.433 34.576ZM414.881 42.064H413.881V63.568H414.881H415.881V42.064H414.881ZM414.881 63.568H413.881C413.881 65.8366 413.057 67.3361 411.486 68.2785L412.001 69.136L412.515 69.9935C414.784 68.6319 415.881 66.4194 415.881 63.568H414.881ZM412.001 69.136L411.486 68.2785C409.803 69.2881 407.02 69.864 402.977 69.864V70.864V71.864C407.125 71.864 410.358 71.2879 412.515 69.9935L412.001 69.136ZM402.977 70.864H403.977V30.352H402.977H401.977V70.864H402.977ZM402.977 30.352H403.977C403.977 27.6347 404.822 25.6652 406.413 24.2934L405.761 23.536L405.108 22.7786C402.987 24.6068 401.977 27.1813 401.977 30.352H402.977ZM405.761 23.536L406.401 24.3042C408.067 22.916 410.675 22.136 414.401 22.136V21.136V20.136C410.446 20.136 407.294 20.956 405.12 22.7678L405.761 23.536ZM414.401 21.136H413.401V26.8H414.401H415.401V21.136H414.401ZM414.401 26.8L413.651 26.1384C412.655 27.2673 411.842 28.3802 411.225 29.4777L412.097 29.968L412.968 30.4583C413.503 29.5078 414.226 28.5087 415.15 27.4616L414.401 26.8ZM412.097 29.968L411.542 30.8L412.118 31.184L412.673 30.352L413.227 29.5199L412.651 29.1359L412.097 29.968ZM412.673 30.352L413.509 30.9007C417.4 24.9708 422.171 22.136 427.841 22.136V21.136V20.136C421.35 20.136 416.009 23.4452 411.836 29.8033L412.673 30.352ZM427.841 21.136V22.136C430.419 22.136 432.198 22.8222 433.358 24.0352L434.081 23.344L434.803 22.6528C433.147 20.9218 430.766 20.136 427.841 20.136V21.136ZM434.081 23.344L433.373 24.0511C434.576 25.2532 435.193 26.7821 435.193 28.72H436.193H437.193C437.193 26.3059 436.401 24.2508 434.788 22.6369L434.081 23.344ZM436.193 28.72H435.193C435.193 30.1943 434.8 31.3778 434.059 32.3301L434.849 32.944L435.638 33.5579C436.689 32.2062 437.193 30.5737 437.193 28.72H436.193ZM434.849 32.944L435.334 32.0698C433.397 30.9938 430.805 30.504 427.649 30.504V31.504V32.504C430.636 32.504 432.844 32.9742 434.363 33.8182L434.849 32.944ZM444.185 14.608L443.493 15.3306C443.504 15.3409 443.515 15.3508 443.526 15.3606L444.185 14.608ZM444.185 4.048L444.859 4.78648L444.86 4.78515L444.185 4.048ZM455.609 4.048L454.917 4.77064C454.928 4.78086 454.939 4.79084 454.95 4.80057L455.609 4.048ZM455.609 14.608L456.283 15.3465L456.284 15.3452L455.609 14.608ZM446.873 22.864L447.353 23.7408C447.36 23.7369 447.368 23.7329 447.375 23.7288L446.873 22.864ZM455.897 21.136H456.897C456.897 20.5837 456.449 20.136 455.897 20.136V21.136ZM452.921 69.136L452.418 68.2712L452.418 68.2712L452.921 69.136ZM443.897 70.864H442.897C442.897 71.4163 443.344 71.864 443.897 71.864V70.864ZM449.945 16.624V15.624C447.849 15.624 446.173 15.0192 444.843 13.8554L444.185 14.608L443.526 15.3606C445.268 16.8848 447.432 17.624 449.945 17.624V16.624ZM444.185 14.608L444.876 13.8854C443.615 12.6799 442.977 11.1559 442.977 9.232H441.977H440.977C440.977 11.6601 441.81 13.7201 443.493 15.3306L444.185 14.608ZM441.977 9.232H442.977C442.977 7.38213 443.608 5.92867 444.859 4.78648L444.185 4.048L443.51 3.30951C441.817 4.85533 440.977 6.85786 440.977 9.232H441.977ZM444.185 4.048L444.86 4.78515C446.192 3.56461 447.862 2.936 449.945 2.936V1.936V0.935995C447.419 0.935995 445.249 1.71538 443.509 3.31084L444.185 4.048ZM449.945 1.936V2.936C452.028 2.936 453.656 3.5644 454.917 4.77064L455.609 4.048L456.3 3.32535C454.617 1.7156 452.469 0.935995 449.945 0.935995V1.936ZM455.609 4.048L454.95 4.80057C456.261 5.94727 456.913 7.3969 456.913 9.232H457.913H458.913C458.913 6.84309 458.028 4.83673 456.267 3.29542L455.609 4.048ZM457.913 9.232H456.913C456.913 11.1417 456.252 12.6615 454.933 13.8708L455.609 14.608L456.284 15.3452C458.037 13.7385 458.913 11.6743 458.913 9.232H457.913ZM455.609 14.608L454.934 13.8695C453.675 15.0192 452.041 15.624 449.945 15.624V16.624V17.624C452.456 17.624 454.598 16.8848 456.283 15.3465L455.609 14.608ZM443.897 28.432H444.897C444.897 26.1029 445.747 24.6219 447.353 23.7408L446.873 22.864L446.392 21.9872C444.03 23.2821 442.897 25.5131 442.897 28.432H443.897ZM446.873 22.864L447.375 23.7288C449.13 22.7095 451.925 22.136 455.897 22.136V21.136V20.136C451.804 20.136 448.583 20.7145 446.37 21.9992L446.873 22.864ZM455.897 21.136H454.897V63.568H455.897H456.897V21.136H455.897ZM455.897 63.568H454.897C454.897 65.8214 454.053 67.3218 452.418 68.2712L452.921 69.136L453.423 70.0008C455.756 68.6462 456.897 66.4346 456.897 63.568H455.897ZM452.921 69.136L452.418 68.2712C450.663 69.2905 447.868 69.864 443.897 69.864V70.864V71.864C447.989 71.864 451.21 71.2855 453.423 70.0008L452.921 69.136ZM443.897 70.864H444.897V28.432H443.897H442.897V70.864H443.897ZM473.866 67.6L473.349 68.4562C473.355 68.4597 473.361 68.4631 473.366 68.4664L473.866 67.6ZM468.202 58.672H467.202C467.202 58.6777 467.202 58.6835 467.202 58.6892L468.202 58.672ZM470.122 54.64L469.493 53.8628C469.486 53.8678 469.48 53.8729 469.474 53.8781L470.122 54.64ZM476.458 52.912L477.437 52.7116C477.341 52.238 476.919 51.9015 476.436 51.9122L476.458 52.912ZM480.49 59.44L479.902 60.2487C479.907 60.2527 479.912 60.2566 479.918 60.2604L480.49 59.44ZM495.85 60.4L496.259 61.3125L496.259 61.3125L495.85 60.4ZM496.33 52.816L495.759 53.6369C495.764 53.6407 495.77 53.6444 495.775 53.648L496.33 52.816ZM487.498 49.744L487.264 50.7164L487.272 50.7182L487.498 49.744ZM476.266 46.288L475.864 47.2037L475.872 47.2071L476.266 46.288ZM470.41 41.872L469.596 42.4532L469.596 42.4532L470.41 41.872ZM473.674 24.88L473.088 24.0693L473.088 24.0693L473.674 24.88ZM502.378 24.304L501.896 25.1803L501.907 25.1864L502.378 24.304ZM506.218 36.4L505.673 35.5616L505.673 35.5616L506.218 36.4ZM499.882 37.744L498.912 37.9865C499.025 38.4396 499.437 38.7539 499.903 38.7438L499.882 37.744ZM496.234 31.984L496.815 31.1703L496.815 31.1703L496.234 31.984ZM482.314 31.312L481.893 30.4049L481.88 30.411L482.314 31.312ZM489.61 40.144L489.819 39.1662L489.816 39.1654L489.61 40.144ZM505.162 46.288L504.537 47.0689L504.545 47.0749L505.162 46.288ZM504.298 67.024L503.743 66.1919L503.737 66.1963L504.298 67.024ZM488.746 70.864V69.864C482.709 69.864 477.939 68.7934 474.365 66.7336L473.866 67.6L473.366 68.4664C477.344 70.7586 482.495 71.864 488.746 71.864V70.864ZM473.866 67.6L474.382 66.7438C470.907 64.6467 469.259 61.9599 469.202 58.6548L468.202 58.672L467.202 58.6892C467.273 62.8081 469.4 66.0733 473.349 68.4562L473.866 67.6ZM468.202 58.672H469.202C469.202 57.3817 469.7 56.3108 470.769 55.4019L470.122 54.64L469.474 53.8781C467.983 55.1452 467.202 56.7623 467.202 58.672H468.202ZM470.122 54.64L470.751 55.4172C471.841 54.5345 473.687 53.9738 476.48 53.9118L476.458 52.912L476.436 51.9122C473.469 51.9782 471.09 52.5695 469.493 53.8628L470.122 54.64ZM476.458 52.912L475.478 53.1124C476.099 56.1463 477.567 58.5507 479.902 60.2487L480.49 59.44L481.078 58.6313C479.189 57.2573 477.969 55.3097 477.437 52.7116L476.458 52.912ZM480.49 59.44L479.918 60.2604C482.225 61.8681 484.993 62.648 488.17 62.648V61.648V60.648C485.331 60.648 482.979 59.9559 481.062 58.6196L480.49 59.44ZM488.17 61.648V62.648C491.499 62.648 494.22 62.2266 496.259 61.3125L495.85 60.4L495.441 59.4875C493.768 60.2374 491.368 60.648 488.17 60.648V61.648ZM495.85 60.4L496.259 61.3125C497.296 60.8475 498.148 60.2337 498.74 59.4367C499.342 58.6278 499.634 57.687 499.634 56.656H498.634H497.634C497.634 57.289 497.462 57.8042 497.135 58.2433C496.8 58.6943 496.259 59.1205 495.441 59.4875L495.85 60.4ZM498.634 56.656H499.634C499.634 54.7149 498.634 53.1504 496.884 51.9839L496.33 52.816L495.775 53.648C497.097 54.5296 497.634 55.5251 497.634 56.656H498.634ZM496.33 52.816L496.901 51.9951C495.252 50.8481 492.13 49.7916 487.724 48.7698L487.498 49.744L487.272 50.7182C491.698 51.7444 494.463 52.7359 495.759 53.6369L496.33 52.816ZM487.498 49.744L487.731 48.7716C482.954 47.6251 479.272 46.4886 476.66 45.3689L476.266 46.288L475.872 47.2071C478.635 48.3914 482.441 49.5589 487.264 50.7164L487.498 49.744ZM476.266 46.288L476.668 45.3724C474.16 44.2714 472.372 42.8984 471.223 41.2908L470.41 41.872L469.596 42.4532C471.008 44.4296 473.123 46.0006 475.864 47.2036L476.266 46.288ZM470.41 41.872L471.223 41.2908C470.099 39.7171 469.49 37.5728 469.49 34.768H468.49H467.49C467.49 37.8512 468.16 40.4428 469.596 42.4532L470.41 41.872ZM468.49 34.768H469.49C469.49 31.0083 471.051 28.0077 474.259 25.6907L473.674 24.88L473.088 24.0693C469.384 26.7443 467.49 30.3357 467.49 34.768H468.49ZM473.674 24.88L474.259 25.6907C477.488 23.3591 481.992 22.136 487.882 22.136V21.136V20.136C481.739 20.136 476.772 21.4089 473.088 24.0693L473.674 24.88ZM487.882 21.136V22.136C493.591 22.136 498.244 23.1718 501.896 25.1802L502.378 24.304L502.86 23.4278C498.831 21.2122 493.821 20.136 487.882 20.136V21.136ZM502.378 24.304L501.907 25.1864C505.521 27.1137 507.138 29.574 507.138 32.56H508.138H509.138C509.138 28.634 506.915 25.5903 502.848 23.4216L502.378 24.304ZM508.138 32.56H507.138C507.138 34.002 506.628 34.9409 505.673 35.5616L506.218 36.4L506.763 37.2384C508.368 36.1951 509.138 34.574 509.138 32.56H508.138ZM506.218 36.4L505.673 35.5616C504.637 36.235 502.762 36.6811 499.86 36.7442L499.882 37.744L499.903 38.7438C502.889 38.6789 505.239 38.229 506.763 37.2384L506.218 36.4ZM499.882 37.744L500.852 37.5015C500.166 34.7587 498.837 32.6146 496.815 31.1703L496.234 31.984L495.653 32.7977C497.214 33.9134 498.317 35.6093 498.912 37.9865L499.882 37.744ZM496.234 31.984L496.815 31.1703C494.789 29.7235 492.027 29.064 488.65 29.064V30.064V31.064C491.801 31.064 494.094 31.6845 495.653 32.7977L496.234 31.984ZM488.65 30.064V29.064C486.105 29.064 483.843 29.4993 481.893 30.405L482.314 31.312L482.735 32.219C484.368 31.4607 486.33 31.064 488.65 31.064V30.064ZM482.314 31.312L481.88 30.411C479.975 31.328 478.722 32.69 478.722 34.576H479.722H480.722C480.722 33.774 481.196 32.96 482.748 32.213L482.314 31.312ZM479.722 34.576H478.722C478.722 36.431 479.737 37.8236 481.467 38.7266L481.93 37.84L482.392 36.9534C481.179 36.3204 480.722 35.537 480.722 34.576H479.722ZM481.93 37.84L481.467 38.7266C483.071 39.5633 485.749 40.3532 489.404 41.1225L489.61 40.144L489.816 39.1654C486.174 38.3988 483.733 37.6527 482.392 36.9534L481.93 37.84ZM489.61 40.144L489.4 41.1218C496.518 42.6471 501.519 44.6548 504.537 47.0689L505.162 46.288L505.786 45.5071C502.404 42.8012 497.037 40.7129 489.819 39.1662L489.61 40.144ZM505.162 46.288L504.545 47.0749C507.549 49.4316 509.058 52.6203 509.058 56.752H510.058H511.058C511.058 52.0517 509.302 48.2644 505.779 45.5011L505.162 46.288ZM510.058 56.752H509.058C509.058 60.6765 507.33 63.8006 503.743 66.1919L504.298 67.024L504.852 67.8561C508.945 65.1274 511.058 61.4035 511.058 56.752H510.058ZM504.298 67.024L503.737 66.1963C500.185 68.6043 495.223 69.864 488.746 69.864V70.864V71.864C495.453 71.864 500.859 70.5637 504.859 67.8517L504.298 67.024ZM521.736 4.336L522.352 5.12402L522.352 5.12402L521.736 4.336ZM530.568 1.936H531.568C531.568 1.38371 531.12 0.935995 530.568 0.935995V1.936ZM530.568 26.896L531.301 27.5764C531.473 27.3915 531.568 27.1484 531.568 26.896H530.568ZM528.264 29.968L527.411 29.4465C527.131 29.9047 527.263 30.5022 527.709 30.8L528.264 29.968ZM528.84 30.352L528.285 31.184C528.733 31.4828 529.338 31.373 529.652 30.9356L528.84 30.352ZM554.376 23.344L554.884 22.4826L554.884 22.4826L554.376 23.344ZM560.136 29.392L559.251 29.8568C559.254 29.8626 559.257 29.8683 559.26 29.8739L560.136 29.392ZM559.272 69.136L558.77 68.2712L558.77 68.2712L559.272 69.136ZM550.248 70.864H549.248C549.248 71.4163 549.696 71.864 550.248 71.864V70.864ZM548.04 33.808L547.303 34.4837C547.308 34.4892 547.313 34.4946 547.318 34.4999L548.04 33.808ZM533.736 34.576L534.421 35.3048C534.425 35.3012 534.428 35.2976 534.432 35.2939L533.736 34.576ZM527.592 69.136L527.09 68.2712L527.09 68.2712L527.592 69.136ZM518.664 70.864H517.664C517.664 71.4163 518.112 71.864 518.664 71.864V70.864ZM518.664 11.152H519.664C519.664 8.4694 520.581 6.50765 522.352 5.12402L521.736 4.336L521.12 3.54797C518.795 5.36435 517.664 7.94659 517.664 11.152H518.664ZM521.736 4.336L522.352 5.12402C524.157 3.71334 526.849 2.936 530.568 2.936V1.936V0.935995C526.607 0.935995 523.411 1.75866 521.12 3.54797L521.736 4.336ZM530.568 1.936H529.568V26.896H530.568H531.568V1.936H530.568ZM530.568 26.896L529.835 26.2155C528.953 27.1651 528.146 28.2435 527.411 29.4465L528.264 29.968L529.117 30.4894C529.79 29.3885 530.519 28.4188 531.301 27.5764L530.568 26.896ZM528.264 29.968L527.709 30.8L528.285 31.184L528.84 30.352L529.395 29.5199L528.819 29.1359L528.264 29.968ZM528.84 30.352L529.652 30.9356C533.903 25.0212 539.247 22.136 545.736 22.136V21.136V20.136C538.529 20.136 532.609 23.3948 528.028 29.7684L528.84 30.352ZM545.736 21.136V22.136C548.844 22.136 551.545 22.8352 553.868 24.2054L554.376 23.344L554.884 22.4826C552.215 20.9088 549.156 20.136 545.736 20.136V21.136ZM554.376 23.344L553.868 24.2054C556.204 25.5831 557.993 27.4619 559.251 29.8568L560.136 29.392L561.021 28.9272C559.591 26.2021 557.54 24.0489 554.884 22.4826L554.376 23.344ZM560.136 29.392L559.26 29.8739C560.579 32.2725 561.248 34.9841 561.248 38.032H562.248H563.248C563.248 34.6799 562.509 31.6315 561.012 28.9101L560.136 29.392ZM562.248 38.032H561.248V63.568H562.248H563.248V38.032H562.248ZM562.248 63.568H561.248C561.248 65.8214 560.405 67.3218 558.77 68.2712L559.272 69.136L559.774 70.0008C562.107 68.6462 563.248 66.4346 563.248 63.568H562.248ZM559.272 69.136L558.77 68.2712C557.014 69.2905 554.219 69.864 550.248 69.864V70.864V71.864C554.341 71.864 557.562 71.2855 559.774 70.0008L559.272 69.136ZM550.248 70.864H551.248V39.76H550.248H549.248V70.864H550.248ZM550.248 39.76H551.248C551.248 37.11 550.438 34.8652 548.762 33.1161L548.04 33.808L547.318 34.4999C548.586 35.8228 549.248 37.546 549.248 39.76H550.248ZM548.04 33.808L548.777 33.1323C547.124 31.329 544.738 30.504 541.8 30.504V31.504V32.504C544.366 32.504 546.14 33.215 547.303 34.4837L548.04 33.808ZM541.8 31.504V30.504C538.307 30.504 535.36 31.6087 533.04 33.8581L533.736 34.576L534.432 35.2939C536.336 33.4473 538.765 32.504 541.8 32.504V31.504ZM533.736 34.576L533.051 33.8472C530.73 36.0281 529.568 38.7918 529.568 42.064H530.568H531.568C531.568 39.3202 532.518 37.0919 534.421 35.3048L533.736 34.576ZM530.568 42.064H529.568V63.568H530.568H531.568V42.064H530.568ZM530.568 63.568H529.568C529.568 65.8214 528.725 67.3218 527.09 68.2712L527.592 69.136L528.094 70.0008C530.427 68.6462 531.568 66.4346 531.568 63.568H530.568ZM527.592 69.136L527.09 68.2712C525.333 69.2915 522.568 69.864 518.664 69.864V70.864V71.864C522.696 71.864 525.883 71.2845 528.094 70.0008L527.592 69.136ZM518.664 70.864H519.664V11.152H518.664H517.664V70.864H518.664ZM582.117 66.352L581.347 66.9906L581.347 66.9906L582.117 66.352ZM578.373 30.928H579.373C579.373 30.3757 578.925 29.928 578.373 29.928V30.928ZM568.485 30.928H567.485C567.485 31.4803 567.933 31.928 568.485 31.928V30.928ZM570.213 24.208L569.425 23.5917L569.425 23.5917L570.213 24.208ZM578.565 22V23C579.117 23 579.565 22.5523 579.565 22H578.565ZM581.445 8.464L581.938 9.33402C581.945 9.32993 581.952 9.32575 581.959 9.32149L581.445 8.464ZM590.181 6.736H591.181C591.181 6.18371 590.733 5.736 590.181 5.736V6.736ZM590.181 22H589.181C589.181 22.5523 589.629 23 590.181 23V22ZM602.949 22H603.949C603.949 21.4477 603.501 21 602.949 21V22ZM601.125 28.912L601.867 29.5829C601.872 29.5772 601.877 29.5714 601.882 29.5656L601.125 28.912ZM590.373 30.928V29.928C589.821 29.928 589.373 30.3757 589.373 30.928H590.373ZM591.621 59.056L590.865 59.7109C590.873 59.7202 590.882 59.7293 590.89 59.7383L591.621 59.056ZM602.853 58.672L603.522 57.9287C603.207 57.6454 602.748 57.5911 602.376 57.7931L602.853 58.672ZM604.389 60.88L603.47 61.2739C603.473 61.2823 603.477 61.2907 603.481 61.2991L604.389 60.88ZM601.989 68.656L602.585 69.4591C602.59 69.455 602.596 69.4509 602.601 69.4467L601.989 68.656ZM593.637 70.864V69.864C588.647 69.864 585.135 68.4232 582.887 65.7134L582.117 66.352L581.347 66.9906C584.091 70.2968 588.259 71.864 593.637 71.864V70.864ZM582.117 66.352L582.887 65.7134C580.569 62.9207 579.373 59.29 579.373 54.736H578.373H577.373C577.373 59.654 578.673 63.7672 581.347 66.9906L582.117 66.352ZM578.373 54.736H579.373V30.928H578.373H577.373V54.736H578.373ZM578.373 30.928V29.928H568.485V30.928V31.928H578.373V30.928ZM568.485 30.928H569.485C569.485 28.017 570.048 26.0416 571.001 24.8243L570.213 24.208L569.425 23.5917C568.074 25.3184 567.485 27.823 567.485 30.928H568.485ZM570.213 24.208L571.001 24.8243C571.957 23.6021 573.199 23 574.821 23V22V21C572.603 21 570.773 21.8699 569.425 23.5917L570.213 24.208ZM574.821 22V23H578.565V22V21H574.821V22ZM578.565 22H579.565V14.032H578.565H577.565V22H578.565ZM578.565 14.032H579.565C579.565 11.6872 580.396 10.2079 581.938 9.33402L581.445 8.464L580.952 7.59397C578.654 8.89612 577.565 11.1288 577.565 14.032H578.565ZM581.445 8.464L581.959 9.32149C583.647 8.30881 586.341 7.736 590.181 7.736V6.736V5.736C586.213 5.736 583.083 6.31518 580.931 7.6065L581.445 8.464ZM590.181 6.736H589.181V22H590.181H591.181V6.736H590.181ZM590.181 22V23H602.949V22V21H590.181V22ZM602.949 22H601.949C601.949 25.1179 601.348 27.1236 600.368 28.2584L601.125 28.912L601.882 29.5656C603.334 27.8844 603.949 25.2821 603.949 22H602.949ZM601.125 28.912L600.383 28.2411C599.433 29.2915 597.812 29.928 595.269 29.928V30.928V31.928C598.102 31.928 600.385 31.2205 601.867 29.5829L601.125 28.912ZM595.269 30.928V29.928H590.373V30.928V31.928H595.269V30.928ZM590.373 30.928H589.373V54.256H590.373H591.373V30.928H590.373ZM590.373 54.256H589.373C589.373 56.5706 589.793 58.4741 590.865 59.7109L591.621 59.056L592.377 58.4011C591.785 57.7179 591.373 56.4214 591.373 54.256H590.373ZM591.621 59.056L590.89 59.7383C592.063 60.9957 593.907 61.496 596.133 61.496V60.496V59.496C594.135 59.496 592.971 59.0363 592.352 58.3737L591.621 59.056ZM596.133 60.496V61.496C598.561 61.496 600.964 60.8353 603.33 59.5509L602.853 58.672L602.376 57.7931C600.262 58.9407 598.185 59.496 596.133 59.496V60.496ZM602.853 58.672L602.184 59.4153C602.703 59.8823 603.135 60.4935 603.47 61.2739L604.389 60.88L605.308 60.4861C604.875 59.4745 604.283 58.6137 603.522 57.9287L602.853 58.672ZM604.389 60.88L603.481 61.2991C603.806 62.0027 603.965 62.724 603.965 63.472H604.965H605.965C605.965 62.428 605.74 61.4213 605.297 60.4609L604.389 60.88ZM604.965 63.472H603.965C603.965 64.9924 603.198 66.4556 601.377 67.8653L601.989 68.656L602.601 69.4467C604.748 67.7844 605.965 65.7916 605.965 63.472H604.965ZM601.989 68.656L601.393 67.8529C599.644 69.1509 597.099 69.864 593.637 69.864V70.864V71.864C597.343 71.864 600.366 71.1051 602.585 69.4591L601.989 68.656ZM616.216 14.608L615.525 15.3306C615.535 15.3409 615.546 15.3508 615.557 15.3606L616.216 14.608ZM616.216 4.048L616.89 4.78648L616.891 4.78515L616.216 4.048ZM627.64 4.048L626.949 4.77064C626.959 4.78086 626.97 4.79084 626.981 4.80057L627.64 4.048ZM627.64 14.608L628.314 15.3465L628.315 15.3452L627.64 14.608ZM618.904 22.864L619.385 23.7408C619.392 23.7369 619.399 23.7329 619.406 23.7288L618.904 22.864ZM627.928 21.136H628.928C628.928 20.5837 628.48 20.136 627.928 20.136V21.136ZM624.952 69.136L624.45 68.2712L624.45 68.2712L624.952 69.136ZM615.928 70.864H614.928C614.928 71.4163 615.375 71.864 615.928 71.864V70.864ZM621.976 16.624V15.624C619.881 15.624 618.204 15.0192 616.874 13.8554L616.216 14.608L615.557 15.3606C617.299 16.8848 619.463 17.624 621.976 17.624V16.624ZM616.216 14.608L616.907 13.8854C615.647 12.6799 615.008 11.1559 615.008 9.232H614.008H613.008C613.008 11.6601 613.841 13.7201 615.525 15.3306L616.216 14.608ZM614.008 9.232H615.008C615.008 7.38213 615.639 5.92867 616.89 4.78648L616.216 4.048L615.541 3.30951C613.848 4.85533 613.008 6.85786 613.008 9.232H614.008ZM616.216 4.048L616.891 4.78515C618.223 3.56461 619.893 2.936 621.976 2.936V1.936V0.935995C619.45 0.935995 617.281 1.71538 615.54 3.31084L616.216 4.048ZM621.976 1.936V2.936C624.059 2.936 625.687 3.5644 626.949 4.77064L627.64 4.048L628.331 3.32535C626.648 1.7156 624.501 0.935995 621.976 0.935995V1.936ZM627.64 4.048L626.981 4.80057C628.292 5.94727 628.944 7.3969 628.944 9.232H629.944H630.944C630.944 6.84309 630.06 4.83673 628.298 3.29542L627.64 4.048ZM629.944 9.232H628.944C628.944 11.1417 628.283 12.6615 626.964 13.8708L627.64 14.608L628.315 15.3452C630.068 13.7385 630.944 11.6743 630.944 9.232H629.944ZM627.64 14.608L626.965 13.8695C625.706 15.0192 624.072 15.624 621.976 15.624V16.624V17.624C624.488 17.624 626.629 16.8848 628.314 15.3465L627.64 14.608ZM615.928 28.432H616.928C616.928 26.1029 617.778 24.6219 619.385 23.7408L618.904 22.864L618.423 21.9872C616.062 23.2821 614.928 25.5131 614.928 28.432H615.928ZM618.904 22.864L619.406 23.7288C621.161 22.7095 623.956 22.136 627.928 22.136V21.136V20.136C623.835 20.136 620.614 20.7145 618.402 21.9992L618.904 22.864ZM627.928 21.136H626.928V63.568H627.928H628.928V21.136H627.928ZM627.928 63.568H626.928C626.928 65.8214 626.085 67.3218 624.45 68.2712L624.952 69.136L625.454 70.0008C627.787 68.6462 628.928 66.4346 628.928 63.568H627.928ZM624.952 69.136L624.45 68.2712C622.694 69.2905 619.899 69.864 615.928 69.864V70.864V71.864C620.02 71.864 623.241 71.2855 625.454 70.0008L624.952 69.136ZM615.928 70.864H616.928V28.432H615.928H614.928V70.864H615.928Z" fill="url(#paint1_linear_14_4)" mask="url(#path-1-outside-1_14_4)"/>
</g>
<defs>
<filter id="filter0_d_14_4" x="0.0228271" y="0.936005" width="640.921" height="102.128" filterUnits="userSpaceOnUse" color-interpolation-filters="sRGB">
<feFlood flood-opacity="0" result="BackgroundImageFix"/>
<feColorMatrix in="SourceAlpha" type="matrix" values="0 0 0 0 0 0 0 0 0 0 0 0 0 0 0 0 0 0 127 0" result="hardAlpha"/>
<feOffset dx="6" dy="8"/>
<feGaussianBlur stdDeviation="2"/>
<feComposite in2="hardAlpha" operator="out"/>
<feColorMatrix type="matrix" values="0 0 0 0 0 0 0 0 0 0 0 0 0 0 0 0 0 0 0.25 0"/>
<feBlend mode="normal" in2="BackgroundImageFix" result="effect1_dropShadow_14_4"/>
<feBlend mode="normal" in="SourceGraphic" in2="effect1_dropShadow_14_4" result="shape"/>
</filter>
<linearGradient id="paint0_linear_14_4" x1="316.5" y1="-6" x2="316.5" y2="87" gradientUnits="userSpaceOnUse">
<stop stop-color="#38BFE2"/>
<stop offset="0.5" stop-color="#025370"/>
<stop offset="1" stop-color="#003350"/>
</linearGradient>
<linearGradient id="paint1_linear_14_4" x1="316.5" y1="-50" x2="316.5" y2="113" gradientUnits="userSpaceOnUse">
<stop stop-color="#38BFE2"/>
<stop offset="1" stop-color="#025370"/>
</linearGradient>
</defs>
</svg>
